<ttFont>
          <CharString index="0">
            rmoveto
            -28 -38 rlineto
            211 hlineto
            203 211 -27 29 -212 -219 29 17 rlineto
            202 329 rmoveto
            -78 -1 250 -258 rlineto
            195 hlineto
            -271 340 rlineto
            -254 hlineto
            -280 -340 rlineto
            195 hlineto
            525 -70 rmoveto
            30 -38 rlineto
            282 hlineto
            -321 402 rlineto
            -50 hlineto
            302 -378 1 14 rlineto
            endchar
          </CharString>
          <CharString index="1">
            19 -37 -42 25 -32 hhcurveto
            -57 -45 -28 -86 -8 hvcurveto
            27 4 rlineto
            -202 hlineto
            -6 -38 rlineto
            218 hlineto
            94 6 22 16 43 hhcurveto
            19 23 -12 -26 49 hvcurveto
            -64 110 60 -15 59 hhcurveto
            175 154 117 213 58 hvcurveto
            -42 hlineto
            return
          </CharString>
          <CharString index="2">
            -255 2 -225 -111 -187 hhcurveto
            -216 -166 143 220 214 167 139 218 220 186 -160 -190 1 hvcurveto
            108 172 rmoveto
            257 -48 -280 76 -185 hhcurveto
            -393 -211 -269 -247 -275 198 -234 384 241 248 129 225 46 hvcurveto
            return
          </CharString>
          <CharString index="3">
            -59 callsubr
            -38 297 252 -40 -231 -90 callgsubr
            return
          </CharString>
          <CharString index="4">
            -100 callgsubr
            hintmask 0100101110100000
            0 0 -260 0 vhcurveto
            203 hlineto
            -13 27 rlineto
            hintmask 0101001110100000
            -192 -65 -46 -129 vhcurveto
            -121 vlineto
            210 119 117 252 hvcurveto
            -197 -145 rmoveto
            hintmask 0010110110100000
            -54 callsubr
            hlineto
            hintmask 1001010110100000
            -38 vlineto
            927 145 -100 callgsubr
            hintmask 0100110101100000
            0 0 -260 0 vhcurveto
            203 hlineto
            -13 27 rlineto
            hintmask 0101010101100000
            -192 -65 -46 -129 vhcurveto
            -121 vlineto
            210 119 117 252 hvcurveto
            -197 -145 rmoveto
            hintmask 0010110110100000
            -54 callsubr
            hlineto
            hintmask 1001010110100000
            -38 vlineto
            endchar
          </CharString>
          <CharString index="5">
            vlineto
            95 -12 81 -27 67 vhcurveto
            171 -69 -153 83 -198 hhcurveto
            -229 -181 -121 -138 -59 hvcurveto
            20 -213 rlineto
            167 57 187 135 150 hhcurveto
            122 101 -46 -122 47 hvcurveto
            return
          </CharString>
          <CharString index="6">
            rmoveto
            -141 -150 -88 -182 -43 hvcurveto
            0 172 -101 callgsubr
            67 25 59 43 65 hhcurveto
            47 26 -10 -46 82 hvcurveto
            -51 81 38 -10 45 hhcurveto
            119 132 88 182 39 hvcurveto
            -172 hlineto
            return
          </CharString>
          <CharString index="7">
            909 -30 rmoveto
            500 285 290 364 376 -248 280 -534 -512 -290 -313 -366 -416 371 -215 428 hvcurveto
            -477 636 rmoveto
            246 172 198 303 164 133 -65 -111 86 vhcurveto
            return
          </CharString>
          <CharString index="8">
            1090 1245 rmoveto
            -216 hlineto
            -693 -1144 73 59 rlineto
            -254 -160 712 160 -299 hlineto
            21 -85 553 996 -39 1 547 -959 25 47 rlineto
            -294 -160 770 160 -300 hlineto
            55 -24 rlineto
            return
          </CharString>
          <CharString index="9">
            5 callsubr
            0 168 0 0 vhcurveto
            -22 callgsubr
            -80 callgsubr
            530 hmoveto
            19 18 rlineto
            -775 -40 795 304 vlineto
            -27 -28 rlineto
            208 40 vlineto
            0 0 -218 0 vhcurveto
            return
          </CharString>
          <CharString index="10">
            407 467 rmoveto
            169 139 133 206 130 120 -59 -95 47 vhcurveto
            78 -86 -95 38 -118 hhcurveto
            -172 -131 -119 -145 -120 54 -89 175 -56 hvcurveto
            -160 11 -109 109 145 vvcurveto
            1047 4 rmoveto
            178 -102 197 -157 102 vhcurveto
            181 -79 118 -190 -208 vvcurveto
            return
          </CharString>
          <CharString index="11">
            -38 657 202 -40 -181 -90 callgsubr
            -89 callgsubr
            -38 657 202 -40 -181 vlineto
            10 17 rlineto
            24 callgsubr
            return
          </CharString>
          <CharString index="12">
            -393 -351 -216 -386 -213 -182 68 116 -90 vhcurveto
            -93 128 156 -53 196 hhcurveto
            368 334 205 366 hvcurveto
            -722 -501 rmoveto
            391 259 210 291 301 -232 223 -395 -377 -263 -235 -293 -258 247 -239 370 hvcurveto
            return
          </CharString>
          <CharString index="13">
            -38 847 202 -40 -181 -90 callgsubr
            -27 767 rmoveto
            -194 -111 -132 -218 hvcurveto
            -137 -40 127 vlineto
            252 132 146 213 49 108 -15 -29 60 vhcurveto
            -10 -13 rlineto
            253 40 vlineto
            0 0 -286 0 vhcurveto
            32 -74 -107 20 -66 hhcurveto
            135 290 rmoveto
            return
          </CharString>
          <CharString index="14">
            hlineto
            110 -11 78 -29 78 vhcurveto
            -35 93 -64 79 -73 36 98 -24 71 -71 40 -97 rrcurveto
            32 -78 11 -95 -116 vvcurveto
            return
          </CharString>
          <CharString index="15">
            -50 63 rlineto
            -391 vlineto
            -95 12 -81 27 -67 vhcurveto
            -171 69 153 -83 198 hhcurveto
            229 191 121 138 59 hvcurveto
            -20 213 rlineto
            -167 -57 -187 -135 -150 hhcurveto
            -122 -111 46 122 -47 hvcurveto
            -18 48 -11 89 107 vvcurveto
            413 vlineto
            return
          </CharString>
          <CharString index="16">
            hlineto
            -86 callgsubr
            return
          </CharString>
          <CharString index="17">
            -160 160 return
          </CharString>
          <CharString index="18">
            -104 callgsubr
            -63 callgsubr
            return
          </CharString>
          <CharString index="19">
            1325 hmoveto
            -213 -840 38 798 175 vlineto
            -864 1089 rmoveto
            46 hlineto
            579 -974 rlineto
            -46 hlineto
            -1189 hmoveto
            68 125 rlineto
            653 hlineto
            return
          </CharString>
          <CharString index="20">
            -91 callsubr
            0 320 -101 callgsubr
            return
          </CharString>
          <CharString index="21">
            50 -59 rlineto
            0 -320 -83 callsubr
            765 -91 callsubr
            -320 hlineto
            50 45 rlineto
            -520 vlineto
            -121 -5 -81 -11 -47 vhcurveto
            -254 -66 -261 -132 -315 hhcurveto
            -418 -240 215 323 hvcurveto
            617 vlineto
            50 -45 rlineto
            -319 hlineto
            -55 callgsubr
            765 -91 callsubr
            0 -321 -101 callgsubr
            50 59 rlineto
            -631 vlineto
            -246 191 -132 242 vhcurveto
            -461 -108 rmoveto
            return
          </CharString>
          <CharString index="22">
            -409 -210 -249 -282 -277 227 -217 414 234 206 64 115 136 hvcurveto
            125 277 rmoveto
            -20 -2 -49 -6 -39 vhcurveto
            0 -972 -101 callgsubr
            20 17 15 -46 71 -58 123 -35 rlinecurve
            return
          </CharString>
          <CharString index="23">
            -367 -216 -233 -314 -186 -99 59 84 -70 vhcurveto
            -66 91 134 -39 129 hhcurveto
            303 188 230 332 hvcurveto
            892 40 vlineto
            return
          </CharString>
          <CharString index="24">
            0 0 vhcurveto
            -55 callgsubr
            return
          </CharString>
          <CharString index="25">
            108 -20 callgsubr
            return
          </CharString>
          <CharString index="26">
            rmoveto
            -245 -200 245 hlineto
            return
          </CharString>
          <CharString index="27">
            118 66 125 77 117 hhcurveto
            91 57 -39 -53 27 hvcurveto
            31 -41 -54 24 -82 hhcurveto
            -118 -133 -108 -97 -29 hvcurveto
            14 82 rlineto
            988 -595 -41 callgsubr
            return
          </CharString>
          <CharString index="28">
            -80 callgsubr
            397 -817 rmoveto
            -97 callgsubr
            411 hlineto
            92 76 -2 -15 60 hvcurveto
            128 -32 56 -70 -83 vvcurveto
            -88 -44 -68 -128 -32 vhcurveto
            return
          </CharString>
          <CharString index="29">
            346 299 rlineto
            285 vlineto
            -346 299 rlineto
            -228 vlineto
            275 -231 rlineto
            25 vlineto
            143 69 rmoveto
            -270 vlineto
            19 38 -397 -343 rlineto
            -50 vlineto
            return
          </CharString>
          <CharString index="30">
            429 -410 rmoveto
            30 -38 rlineto
            248 hlineto
            -284 402 rlineto
            -49 hlineto
            267 -378 2 14 rlineto
            endchar
          </CharString>
          <CharString index="31">
            13 -27 rlineto
            192 65 46 129 vhcurveto
            0 0 121 0 -210 -119 -117 -252 vhcurveto
            437 hmoveto
            -40 -310 hlineto
            10 17 rlineto
            -347 hlineto
            return
          </CharString>
          <CharString index="32">
            -265 -70 rmoveto
            -38 377 312 -40 -291 -90 callgsubr
            return
          </CharString>
          <CharString index="33">
            118 38 -118 -38 hlineto
            return
          </CharString>
          <CharString index="34">
            6 -40 -49 2 -29 hhcurveto
            -298 -198 -207 -162 -6 hvcurveto
            68 -244 rlineto
            266 193 157 224 42 46 -4 -10 47 vhcurveto
            return
          </CharString>
          <CharString index="35">
            385 -54 callgsubr
            return
          </CharString>
          <CharString index="36">
            -140 vlineto
            234 55 -45 -50 hvcurveto
            -231 -353 rmoveto
            352 192 139 214 71 -29 65 -72 43 hvcurveto
            0 0 -6 0 vhcurveto
            64 43 31 89 62 vvcurveto
            85 -48 70 -95 26 vhcurveto
            63 -41 40 -55 -85 vvcurveto
            -67 -42 -88 -73 -36 vhcurveto
            66 -28 55 -63 -85 vvcurveto
            return
          </CharString>
          <CharString index="37">
            -38 737 202 -40 -181 -90 callgsubr
            -242 984 rmoveto
            40 -704 -40 hlineto
            return
          </CharString>
          <CharString index="38">
            rmoveto
            109 49 114 67 138 hhcurveto
            115 106 -39 -73 39 hvcurveto
            return
          </CharString>
          <CharString index="39">
            60 54 rlineto
            return
          </CharString>
          <CharString index="40">
            -368 -289 -246 -449 -216 -180 67 150 -121 vhcurveto
            -130 161 157 -49 199 hhcurveto
            425 273 244 332 209 -121 190 -205 98 hvcurveto
            212 -69 154 -193 -235 vvcurveto
            endchar
          </CharString>
          <CharString index="41">
            -182 -48 -138 -110 -159 hhcurveto
            endchar
          </CharString>
          <CharString index="42">
            -91 callgsubr
            605 240 -200 170 -140 170 return
          </CharString>
          <CharString index="43">
            225 -225 297 return
          </CharString>
          <CharString index="44">
            rmoveto
            28 -39 63 -38 46 -14 -59 1 -76 28 -28 32 rrcurveto
            706 199 rmoveto
            return
          </CharString>
          <CharString index="45">
            -70 -18 -43 -40 -45 hhcurveto
            -41 -27 16 32 -48 hvcurveto
            return
          </CharString>
          <CharString index="46">
            77 116 hhcurveto
            91 60 -39 -53 27 hvcurveto
            31 -41 -57 23 -82 hhcurveto
            -118 return
          </CharString>
          <CharString index="47">
            419 0 callgsubr
            160 185 -38 -73 callgsubr
            125 705 return
          </CharString>
          <CharString index="48">
            -185 -70 rmoveto
            return
          </CharString>
          <CharString index="49">
            113 -65 -543 532 rlineto
            204 -46 rmoveto
            368 -361 rlineto
            -56 hlineto
            -353 345 311 return
          </CharString>
          <CharString index="50">
            260 hstemhm
            155 329 -135 135 72 40 return
          </CharString>
          <CharString index="51">
            -72 callsubr
            -287 return
          </CharString>
          <CharString index="52">
            rmoveto
            121 32 rlineto
            41 vlineto
            -121 -32 rlineto
            467 -278 rmoveto
            -38 574 hlineto
            38 7 rlineto
            return
          </CharString>
          <CharString index="53">
            4 9 5 18 2 11 rrcurveto
            -79 return
          </CharString>
          <CharString index="54">
            7 -268 rmoveto
            -221 -140 49 107 -105 hvcurveto
            -80 125 140 -38 187 hhcurveto
            264 221 98 237 76 hvcurveto
            17 60 10 82 136 vvcurveto
            497 269 vlineto
            return
          </CharString>
          <CharString index="55">
            1385 914 rmoveto
            -704 40 704 -40 vlineto
            -505 51 rmoveto
            -170 270 vlineto
            return
          </CharString>
          <CharString index="56">
            18 -48 11 -89 -107 vvcurveto
            -317 -68 callgsubr
            return
          </CharString>
          <CharString index="57">
            -50 49 rlineto
            -1198 -68 callgsubr
            return
          </CharString>
          <CharString index="58">
            24 23 rlineto
            -485 vlineto
            -139 -9 -87 -21 -67 vhcurveto
            -238 -81 -225 -117 -278 hhcurveto
            -253 486 rmoveto
            34 -74 77 -52 63 -22 -105 12 -71 52 -36 70 rrcurveto
            return
          </CharString>
          <CharString index="59">
            -47 callgsubr
            858 return
          </CharString>
          <CharString index="60">
            rmoveto
            -77 -60 -23 -171 -156 -92 47 97 -35 vhcurveto
            -167 -66 rlineto
            -147 55 161 -76 234 hhcurveto
            279 153 90 155 98 -94 83 -210 11 hvcurveto
            return
          </CharString>
          <CharString index="61">
            vlineto
            hintmask 01100000
            165 vlineto
            82 -235 rmoveto
            -10 -16 rlineto
            155 40 vlineto
            hintmask 10100000
            -177 return
          </CharString>
          <CharString index="62">
            -33 callsubr
            -156 237 return
          </CharString>
          <CharString index="63">
            rmoveto
            -97 -79 -49 -108 -49 -43 17 27 -29 vhcurveto
            hintmask 1001001001100000
            -51 12 66 -27 66 hhcurveto
            120 77 77 81 61 -23 50 -43 9 hvcurveto
            21 -21 12 -41 -36 vvcurveto
            return
          </CharString>
          <CharString index="64">
            5 callsubr
            168 hlineto
            return
          </CharString>
          <CharString index="65">
            rmoveto
            150 -220 vlineto
            return
          </CharString>
          <CharString index="66">
            8 callgsubr
            217 return
          </CharString>
          <CharString index="67">
            -81 -138 -73 callgsubr
            156 -156 232 529 -73 callgsubr
            156 return
          </CharString>
          <CharString index="68">
            -580 258 -67 callgsubr
            -150 354 38 224 -154 154 return
          </CharString>
          <CharString index="69">
            -1185 404 rmoveto
            -125 799 12 callgsubr
            return
          </CharString>
          <CharString index="70">
            rmoveto
            -289 -261 175 304 308 256 203 301 311 236 -194 -302 -262 -221 -232 -333 hvcurveto
            return
          </CharString>
          <CharString index="71">
            22 -74 -62 9 -171 hhcurveto
            -612 570 rmoveto
            0 159 -101 callgsubr
            return
          </CharString>
          <CharString index="72">
            0 0 11 callsubr
            return
          </CharString>
          <CharString index="73">
            60 -70 rmoveto
            return
          </CharString>
          <CharString index="74">
            hstemhm
            140 507 -8 callsubr
            -227 299 -299 495 return
          </CharString>
          <CharString index="75">
            rmoveto
            195 hlineto
            -240 340 rlineto
            -255 hlineto
            return
          </CharString>
          <CharString index="76">
            1539 442 -40 -428 return
          </CharString>
          <CharString index="77">
            -28 callgsubr
            -24 rlineto
            return
          </CharString>
          <CharString index="78">
            -138 -82 callsubr
            return
          </CharString>
          <CharString index="79">
            -280 -150 return
          </CharString>
          <CharString index="80">
            895 1245 rlineto
            -230 hlineto
            -900 -1245 rlineto
            1219 1194 rmoveto
            -919 -1302 rlineto
            -248 hlineto
            return
          </CharString>
          <CharString index="81">
            253 -145 145 -145 280 -280 512 -270 195 -97 97 -28 71 -6 149 -40 40 70 145 return
          </CharString>
          <CharString index="82">
            -679 -426 rlineto
            205 77 rmoveto
            445 -435 65 63 rlineto
            return
          </CharString>
          <CharString index="83">
            -200 245 vlineto
            -59 callsubr
            return
          </CharString>
          <CharString index="84">
            200 hstemhm
            125 455 -245 245 -88 callgsubr
            285 -285 445 -158 40 190 40 return
          </CharString>
          <CharString index="85">
            57 callsubr
            242 123 91 107 39 hvcurveto
            25 82 4 45 167 vvcurveto
            517 vlineto
            return
          </CharString>
          <CharString index="86">
            -74 44 114 -56 115 hhcurveto
            232 187 123 199 83 -46 66 -75 27 hvcurveto
            42 -26 39 -69 -81 vvcurveto
            return
          </CharString>
          <CharString index="87">
            -80 callgsubr
            546 -464 rmoveto
            -157 87 -128 215 -26 vhcurveto
            -235 -107 128 183 hvcurveto
            return
          </CharString>
          <CharString index="88">
            -31 38 rlineto
            205 hlineto
            -29 -11 rlineto
            endchar
          </CharString>
          <CharString index="89">
            49 12 25 124 39 39 -9 -6 5 vhcurveto
            31 -22 24 -79 -135 -23 -42 -59 vhcurveto
            -239 -578 rmoveto
            return
          </CharString>
          <CharString index="90">
            7 -138 108 -40 40 0 239 -209 140 return
          </CharString>
          <CharString index="91">
            hstemhm
            145 435 -215 215 -70 70 -70 140 return
          </CharString>
          <CharString index="92">
            -541 -435 rmoveto
            -213 -780 38 return
          </CharString>
          <CharString index="93">
            268 -230 70 -20 callgsubr
            return
          </CharString>
          <CharString index="94">
            rmoveto
            215 172 140 220 213 167 -139 -204 -214 -139 -139 -216 return
          </CharString>
          <CharString index="95">
            -164 -157 -120 -225 -114 -85 35 57 -71 vhcurveto
            275 291 rmoveto
            77 50 -42 -57 return
          </CharString>
          <CharString index="96">
            73 -59 29 -53 -79 vvcurveto
            -127 -74 -101 -299 -88 vhcurveto
            -121 -36 -19 -15 -25 -16 rrcurveto
            endchar
          </CharString>
          <CharString index="97">
            0 0 -63 callgsubr
            247 -23 callgsubr
            return
          </CharString>
          <CharString index="98">
            8 callgsubr
            222 70 40 715 220 72 40 return
          </CharString>
          <CharString index="99">
            -227 227 return
          </CharString>
          <CharString index="100">
            rmoveto
            35 12 8 3 82 24 rrcurveto
            297 87 88 113 144 vvcurveto
            75 -39 78 -103 38 vhcurveto
            return
          </CharString>
          <CharString index="101">
            56 callgsubr
            -38 hlineto
            625 -687 41 callsubr
            return
          </CharString>
          <CharString index="102">
            -770 -578 -73 callgsubr
            170 1024 70 return
          </CharString>
          <CharString index="103">
            435 -88 callgsubr
            285 -285 return
          </CharString>
          <CharString index="104">
            -64 callgsubr
            -190 hlineto
            0 return
          </CharString>
          <CharString index="105">
            25 -52 -89 13 -198 hhcurveto
            return
          </CharString>
          <CharString index="106">
            250 72 40 return
          </CharString>
          <CharString index="107">
            181 148 -93 -93 74 hvcurveto
            205 310 -215 -157 hlineto
            132 -53 rlineto
            return
          </CharString>
          <CharString index="108">
            250 -209 240 -375 -249 -213 -144 -209 -51 hvcurveto
            180 return
          </CharString>
          <CharString index="109">
            -82 callsubr
            0 285 -38 -82 callsubr
            0 340 -38 108 return
          </CharString>
          <CharString index="110">
            -82 callsubr
            hstemhm
            110 return
          </CharString>
          <CharString index="111">
            rmoveto
            -445 -171 280 hlineto
            return
          </CharString>
          <CharString index="112">
            210 977 rmoveto
            return
          </CharString>
          <CharString index="113">
            280 rmoveto
            -40 return
          </CharString>
          <CharString index="114">
            10 16 rlineto
            -340 -322 hlineto
            10 17 rlineto
            -182 -38 212 hlineto
            endchar
          </CharString>
          <CharString index="115">
            36 callsubr
            -232 1414 rmoveto
            return
          </CharString>
          <CharString index="116">
            38 236 vlineto
            -8 -13 rlineto
            351 40 return
          </CharString>
          <CharString index="117">
            229 -121 121 return
          </CharString>
          <CharString index="118">
            -63 callgsubr
            0 return
          </CharString>
          <CharString index="119">
            -38 297 252 -40 -231 vlineto
            hintmask 10001000000010110001100010000000
            10 17 rlineto
            return
          </CharString>
          <CharString index="120">
            69 41 42 51 52 -45 44 -64 -61 -49 -41 -58 -51 45 -39 64 hvcurveto
            return
          </CharString>
          <CharString index="121">
            rmoveto
            -200 -695 200 hlineto
            112 644 rmoveto
            -752 -252 return
          </CharString>
          <CharString index="122">
            -300 -150 hlineto
            return
          </CharString>
          <CharString index="123">
            -73 callgsubr
            125 0 324 -268 108 122 108 return
          </CharString>
          <CharString index="124">
            201 384 166 -98 192 -160 105 hvcurveto
            200 -90 return
          </CharString>
          <CharString index="125">
            -196 -186 -119 -318 -167 -139 42 80 -97 vhcurveto
            return
          </CharString>
          <CharString index="126">
            0 24 16 0 vhcurveto
            -221 hlineto
            0 21 -38 0 vhcurveto
            213 hlineto
            return
          </CharString>
          <CharString index="127">
            232 -124 124 148 93 return
          </CharString>
          <CharString index="128">
            -108 -141 rmoveto
            -222 45 216 -132 259 hhcurveto
            return
          </CharString>
          <CharString index="129">
            10 24 rlineto
            -1088 761 rmoveto
            -125 526 12 callgsubr
            return
          </CharString>
          <CharString index="130">
            rmoveto
            -256 -189 -181 -222 -102 -101 28 74 -85 vhcurveto
            return
          </CharString>
          <CharString index="131">
            77 -796 rmoveto
            155 -217 vlineto
            return
          </CharString>
          <CharString index="132">
            27 38 rlineto
            205 hlineto
            -20 -17 910 1281 rlineto
            return
          </CharString>
          <CharString index="133">
            -215 215 -215 -42 callgsubr
            return
          </CharString>
          <CharString index="134">
            rmoveto
            -38 657 202 -40 -181 -90 callgsubr
            return
          </CharString>
          <CharString index="135">
            -87 137 -64 hvcurveto
            -141 30 -96 97 141 vvcurveto
            return
          </CharString>
          <CharString index="136">
            hvcurveto
            -205 -360 225 195 hlineto
            -76 5 rlineto
            return
          </CharString>
          <CharString index="137">
            rmoveto
            325 260 -203 hlineto
            return
          </CharString>
          <CharString index="138">
            467 -73 callgsubr
            165 hstemhm
            return
          </CharString>
          <CharString index="139">
            199 120 rlineto
            -1086 hlineto
            return
          </CharString>
          <CharString index="140">
            -54 -49 -40 -82 -99 -27 56 38 43 35 56 95 return
          </CharString>
          <CharString index="141">
            38 70 -20 callgsubr
            -113 51 callsubr
            return
          </CharString>
          <CharString index="142">
            hlineto
            189 178 19 27 102 hvcurveto
            289 76 return
          </CharString>
          <CharString index="143">
            -38 707 202 -40 -181 -90 callgsubr
            return
          </CharString>
          <CharString index="144">
            -326 -332 -367 319 -285 452 return
          </CharString>
          <CharString index="145">
            -101 callgsubr
            -96 callgsubr
            return
          </CharString>
          <CharString index="146">
            308 -200 200 return
          </CharString>
          <CharString index="147">
            -196 hlineto
            98 -29 rlineto
            return
          </CharString>
          <CharString index="148">
            rmoveto
            150 -280 vlineto
            return
          </CharString>
          <CharString index="149">
            54 callgsubr
            hlineto
            return
          </CharString>
          <CharString index="150">
            hhcurveto
            381 175 188 166 219 return
          </CharString>
          <CharString index="151">
            745 160 hlineto
            -3 -317 0 0 hvcurveto
            return
          </CharString>
          <CharString index="152">
            hstemhm
            550 490 -207 207 66 46 return
          </CharString>
          <CharString index="153">
            155 -47 47 -47 160 -43 160 hstemhm
            return
          </CharString>
          <CharString index="154">
            -268 -13 callgsubr
            hstemhm
            return
          </CharString>
          <CharString index="155">
            -23 -20 rlineto
            353 242 -40 -220 hlineto
            return
          </CharString>
          <CharString index="156">
            -38 -82 callsubr
            hstemhm
            return
          </CharString>
          <CharString index="157">
            6 callsubr
            350 hlineto
            return
          </CharString>
          <CharString index="158">
            70 -20 callgsubr
            hstemhm
            return
          </CharString>
          <CharString index="159">
            -687 rmoveto
            150 return
          </CharString>
          <CharString index="160">
            -138 268 -238 238 -160 return
          </CharString>
          <CharString index="161">
            259 231 132 222 45 hvcurveto
            return
          </CharString>
          <CharString index="162">
            201 47 103 154 hvcurveto
            27 -29 rlineto
            return
          </CharString>
          <CharString index="163">
            vlineto
            -10 -24 rlineto
            403 40 -417 vlineto
            return
          </CharString>
          <CharString index="164">
            -80 callgsubr
            -223 -842 rmoveto
            return
          </CharString>
        <CharString name=".notdef">
          -1040 endchar
        </CharString>
        <CharString name="A">
          -60 callsubr
          -20 hstemhm
          784 40 -40 442 841 42 hintmask 11011011
          -99 callsubr
          -38 callsubr
          hintmask 11011101
          -15 callsubr
          740 175 vlineto
          -88 callsubr
          hintmask 10101011
          -76 callgsubr
          endchar
        </CharString>
        <CharString name="AE">
          1346 0 callgsubr
          -70 70 -20 callgsubr
          0 185 -38 108 -25 395 -370 125 -82 16 callsubr
          0 160 hstemhm
          1249 495 -225 11 callgsubr
          471 40 369 72 0 40 hintmask 100101000000110110100000
          1249 1245 rmoveto
          -1058 -1144 93 59 rlineto
          -284 -160 742 160 -299 hlineto
          21 -85 932 1028 -160 -18 rlineto
          333 hlineto
          hintmask 100101000001001110100000
          -96 callgsubr
          hintmask 001001000001010111000000
          -330 -160 1487 390 -225 -260 hlineto
          30 30 rlineto
          -847 hlineto
          -97 callgsubr
          847 hlineto
          -30 30 rlineto
          hintmask 100100101010110111000000
          -260 225 390 vlineto
          -2080 -705 rmoveto
          -125 879 12 callgsubr
          -681 -435 rmoveto
          -213 -810 vlineto
          hintmask 010101000001010110100000
          38 770 175 vlineto
          -121 115 rmoveto
          118 125 rlineto
          666 hlineto
          hintmask 100010010011010110100000
          -38 -665 vlineto
          38 28 -113 -115 rlineto
          702 775 rmoveto
          -43 -18 rlineto
          81 hlineto
          hintmask 100100010100110110100000
          38 -64 vlineto
          -373 -415 rlineto
          44 hlineto
          355 395 rlineto
          hintmask 100101000001010110100000
          1030 -18 rmoveto
          -637 -38 callgsubr
          -249 -40 vlineto
          hintmask 100100010100110110100000
          264 653 vlineto
          hintmask 010101000001010110100000
          -1160 -1085 rmoveto
          hintmask 100101000001010110100000
          -38 -31 callsubr
          vlineto
          hintmask 010100101011010110100000
          22 callsubr
          hintmask 100100010011010110100000
          -418 -233 rmoveto
          18 22 rlineto
          -260 -40 276 543 vlineto
          -32 -14 rlineto
          159 40 -183 vlineto
          204 289 rmoveto
          hintmask 100101000001010110100000
          -30 callsubr
          434 40 vlineto
          hintmask 100100010011010110100000
          -448 vlineto
          endchar
        </CharString>
        <CharString name="Aacute">
          -60 callsubr
          107 38 70 340 -20 hstemhm
          784 40 -40 442 841 42 hintmask 1101111011000000
          -99 callsubr
          -38 callsubr
          hintmask 1101111101000000
          -15 callsubr
          740 175 vlineto
          -88 callsubr
          hintmask 1010111011000000
          -76 callgsubr
          260 877 7 callgsubr
          -105 callgsubr
        </CharString>
        <CharString name="Acircumflex">
          419 413 267 65 195 endchar
        </CharString>
        <CharString name="Adieresis">
          -60 callsubr
          -20 235 200 hstemhm
          511 245 -190 302 -84 442 -398 40 253 -1 callgsubr
          589 42 hintmask 1101111010011000
          -99 callsubr
          hintmask 1101110100111000
          -38 callsubr
          -15 callsubr
          vlineto
          hintmask 1101111010011000
          740 175 hlineto
          -88 callsubr
          hintmask 1010111001111000
          -76 callgsubr
          -230 737 -4 callgsubr
          -38 vlineto
          hintmask 1101110100111000
          297 252 hlineto
          hintmask 1101111001111000
          -40 -231 hlineto
          10 17 rlineto
          528 270 -12 callgsubr
          endchar
        </CharString>
        <CharString name="Agrave">
          419 509 267 65 193 endchar
        </CharString>
        <CharString name="Aring">
          419 517 249 65 202 endchar
        </CharString>
        <CharString name="Atilde">
          -60 callsubr
          100 34 callsubr
          784 40 -40 442 841 42 hintmask 1101110100110000
          -99 callsubr
          -38 callsubr
          hintmask 1101110101010000
          -15 callsubr
          740 175 vlineto
          -88 callsubr
          hintmask 1010110010110000
          -76 callgsubr
          -146 807 -101 callsubr
          hintmask 1101101000110000
          -62 callsubr
          hintmask 1101110010110000
          -78 callgsubr
          hintmask 1101110100110000
          -106 callsubr
          -66 callsubr
        </CharString>
        <CharString name="B">
          263 0 callgsubr
          160 340 -38 -73 callgsubr
          125 -79 361 -327 365 -40 40 -38 108 -70 51 callsubr
          144 504 -228 228 -66 66 72 40 698 234 95 40 hintmask 1101001001100111
          1636 648 rmoveto
          136 -67 55 -106 -120 vvcurveto
          -207 -111 -169 -303 -59 vhcurveto
          -26 -135 -169 -2 -230 hhcurveto
          -656 38 656 hlineto
          210 183 1 26 133 hvcurveto
          299 58 83 174 166 vvcurveto
          117 -68 114 -154 53 vhcurveto
          135 68 64 95 115 vvcurveto
          115 -59 112 -142 71 vhcurveto
          160 -39 81 -118 -133 vvcurveto
          -124 -48 -86 -117 -80 vhcurveto
          0 -3 13 0 vhcurveto
          -1432 327 rmoveto
          174 40 -174 -40 hlineto
          556 -220 rmoveto
          -40 260 299 hlineto
          204 79 -18 -58 56 hvcurveto
          hintmask 1101000100100111
          -2 callsubr
          -283 -38 callgsubr
          261 -430 rmoveto
          112 90 -2 -20 69 hvcurveto
          111 -33 55 -69 -86 vvcurveto
          -71 -23 -64 -92 -34 vhcurveto
          -26 -70 -99 -5 -136 hhcurveto
          -440 hlineto
          -97 callgsubr
          421 hlineto
          119 91 -1 -20 66 hvcurveto
          99 -30 44 -62 -71 vvcurveto
          -84 -35 -61 -101 -33 vhcurveto
          -21 -65 -92 -7 -126 hhcurveto
          hintmask 1101000100001111
          -437 -125 hlineto
          hintmask 1100100001100111
          634 46 rmoveto
          325 151 165 136 149 -84 113 -218 40 hvcurveto
          17 -91 -153 9 -284 hhcurveto
          -718 -160 326 hlineto
          hintmask 1100010001010111
          -96 callgsubr
          -321 -160 720 hlineto
          216 169 5 24 127 hvcurveto
          240 45 85 115 162 vvcurveto
          114 -74 97 -130 51 vhcurveto
          29 -75 -105 8 -114 hhcurveto
          hintmask 1100100010100111
          0 -2 -34 0 vhcurveto
          -456 -396 rmoveto
          -40 280 299 hlineto
          204 98 -26 -58 56 hvcurveto
          hintmask 1010010001100111
          33 -69 -79 13 -210 hhcurveto
          -283 -38 callgsubr
          endchar
        </CharString>
        <CharString name="C">
          98 -29 callsubr
          647 -73 callgsubr
          360 -233 -82 callsubr
          hstemhm
          100 -1 callsubr
          914 227 72 40 hintmask 0110011111000000
          1436 777 rmoveto
          38 249 56 callsubr
          -825 -647 rmoveto
          -316 -224 204 288 255 165 243 353 224 199 -98 -137 85 hvcurveto
          227 hlineto
          hintmask 1001001111000000
          360 -227 -196 vlineto
          98 -29 rlineto
          hintmask 0110011111000000
          148 -79 -257 112 -254 hhcurveto
          -526 -258 -326 -332 -367 329 -285 452 358 239 27 callgsubr
          -178 47 callgsubr
          138 -56 -100 80 hvcurveto
          hintmask 1010101111000000
          81 -114 -131 37 -149 hhcurveto
          -254 -152 -178 -205 -199 103 -146 271 -88 hvcurveto
          -251 36 -163 159 232 vvcurveto
          247 184 180 266 vhcurveto
          791 -837 rmoveto
          -222 -123 -290 -129 -369 hhcurveto
          -210 -216 62 124 -111 hvcurveto
          -88 128 218 -60 193 hhcurveto
          340 286 120 214 119 hvcurveto
          endchar
        </CharString>
        <CharString name="Ccedilla">
          78 -607 20 callsubr
          104 52 -52 160 685 430 -360 360 -195 230 -160 125 hstemhm
          110 250 557 225 62 40 122 227 70 40 hintmask 0111010001111100
          1426 777 rmoveto
          38 247 56 callsubr
          -1002 -1004 -79 callgsubr
          54 203 rlineto
          -152 hlineto
          264 -114 rmoveto
          104 -32 68 -66 -115 18 callgsubr
          hintmask 1010100011111100
          -5 30 63 -4 29 31 callgsubr
          89 -42 83 -87 38 hvcurveto
          -451 -21 rmoveto
          -124 27 -110 52 -76 85 85 -58 117 -47 127 -24 rrcurveto
          449 -33 rmoveto
          244 45 184 113 93 169 -35 21 rcurveline
          -104 -187 -218 -109 -264 -30 rrcurveto
          -142 222 rmoveto
          57 callgsubr
          155 243 353 hvcurveto
          hintmask 1011001001111100
          224 189 -98 -137 85 hvcurveto
          227 360 -227 40 callsubr
          hintmask 1010100101111100
          148 -79 -247 112 -254 hhcurveto
          -526 -248 37 callsubr
          358 229 27 callgsubr
          -168 47 callgsubr
          128 -56 -100 80 hvcurveto
          81 -114 -121 37 -149 hhcurveto
          -254 -142 -178 -205 -199 93 -146 271 -88 hvcurveto
          -251 36 -153 159 232 vvcurveto
          247 174 180 266 vhcurveto
          endchar
        </CharString>
        <CharString name="D">
          275 -108 -82 callsubr
          817 108 -70 51 callsubr
          150 496 -225 225 70 40 734 254 72 41 hintmask 0100110111000000
          947 1085 rmoveto
          402 141 -140 -303 hvcurveto
          -37 vlineto
          -311 -138 -134 -396 vhcurveto
          -360 hlineto
          -97 callgsubr
          1148 -462 rmoveto
          321 -142 188 -287 78 vhcurveto
          29 -109 -131 6 -177 hhcurveto
          -748 -160 321 hlineto
          hintmask 0110001111000000
          -96 callgsubr
          hintmask 0110010111000000
          -331 -160 758 34 callgsubr
          135 209 294 vvcurveto
          113 hmoveto
          -345 -180 -257 -324 -82 vhcurveto
          hintmask 1010010111000000
          -28 -111 -161 -19 -205 hhcurveto
          -662 38 662 35 callsubr
          182 234 337 vvcurveto
          248 -93 149 -167 122 vhcurveto
          194 -98 107 -162 -259 vvcurveto
          -1647 354 rmoveto
          169 hlineto
          hintmask 1001010111000000
          38 -169 vlineto
          hintmask 1010010111000000
          -38 vlineto
          546 -757 rmoveto
          -40 hlineto
          hintmask 1001010111000000
          301 0 193 301 vvcurveto
          212 hlineto
          268 81 -37 -94 91 hvcurveto
          hintmask 1010010111000000
          62 -98 -108 31 -234 hhcurveto
          -196 -38 callgsubr
          endchar
        </CharString>
        <CharString name="E">
          247 -108 268 -90 callsubr
          -160 390 -390 458 38 195 -125 125 -125 181 38 460 -390 390 -268 -50 callgsubr
          hstemhm
          150 505 -235 235 -235 307 685 -64 callsubr
          0 40 hintmask 100010000100100101000000
          -43 callsubr
          hintmask 100010000010100101000000
          38 -168 vlineto
          hintmask 100010000100001101000000
          -38 vlineto
          1160 hmoveto
          -627 -38 callgsubr
          -249 -40 vlineto
          hintmask 100010000010001101000000
          264 643 vlineto
          hintmask 100010000100100101000000
          267 230 rmoveto
          -1487 hlineto
          hintmask 100010000001100101000000
          -160 320 vlineto
          hintmask 100010010000010101000000
          -96 callgsubr
          hintmask 010010010000100101000000
          -330 -160 1487 hlineto
          hintmask 001010010000100101000000
          390 -225 -260 vlineto
          hintmask 100010000001100010000000
          30 30 rlineto
          -837 hlineto
          -97 callgsubr
          837 hlineto
          -30 30 rlineto
          hintmask 100001001000100101000000
          -260 225 vlineto
          -1427 -925 rmoveto
          -38 -31 callsubr
          vlineto
          10 24 rlineto
          -1078 761 rmoveto
          -125 516 12 callgsubr
          hintmask 000110010000001101000000
          111 -233 rmoveto
          -519 hlineto
          18 22 rlineto
          -260 -40 276 533 vlineto
          -32 -14 rlineto
          159 40 -183 vlineto
          hintmask 100000110000100101000000
          204 289 rmoveto
          -30 callsubr
          434 40 -448 vlineto
          endchar
        </CharString>
        <CharString name="Eacute">
          -107 callgsubr
          -480 1053 7 callgsubr
          -250 -340 rlineto
          195 hlineto
          hintmask 100010000000111001010000
          -135 -70 rmoveto
          -28 -38 rlineto
          214 hlineto
          358 392 rlineto
          -53 hlineto
          -339 -371 28 17 rlineto
          endchar
        </CharString>
        <CharString name="Ecircumflex">
          -107 callgsubr
          hintmask 100010000000111001010000
          -1188 643 -107 callsubr
        </CharString>
        <CharString name="Edieresis">
          239 -108 268 -90 callsubr
          -160 390 -390 458 38 195 -125 125 -125 181 38 460 -390 390 -268 -50 callgsubr
          -160 305 -38 39 callsubr
          hstemhm
          150 505 -235 235 -193 265 0 40 0 52 253 245 -89 40 49 72 248 72 0 40 hintmask 10001000010001010001100010000000
          -43 callsubr
          hintmask 10001000001001010001100010000000
          38 -168 vlineto
          hintmask 10001000010001000101100010000000
          -38 vlineto
          1160 hmoveto
          -627 -38 callgsubr
          -249 -40 vlineto
          hintmask 10001000001001010010100010000000
          264 643 vlineto
          hintmask 10001000010001010001100100000000
          267 230 rmoveto
          -1487 hlineto
          hintmask 10001000000101010001100010000000
          -160 320 vlineto
          hintmask 10001001000001001001100010000000
          -96 callgsubr
          hintmask 01001001000001010001100100000000
          -330 -160 1487 hlineto
          hintmask 00101001000001010001100100000000
          390 -225 -260 vlineto
          hintmask 10001000000101010001100010000000
          30 30 rlineto
          -837 hlineto
          -97 callgsubr
          837 hlineto
          -30 30 rlineto
          hintmask 10001000100001010001100100000000
          -260 225 vlineto
          -1427 -925 rmoveto
          -38 vlineto
          hintmask 10000101000001010001100010000000
          -31 callsubr
          hlineto
          10 24 rlineto
          -1078 761 rmoveto
          -125 516 12 callgsubr
          hintmask 00011001000001000101011010000000
          111 -233 rmoveto
          -519 hlineto
          18 22 rlineto
          -260 -40 276 533 vlineto
          -32 -14 rlineto
          159 40 -183 vlineto
          hintmask 10000011000001000101100010000000
          204 289 rmoveto
          -30 callsubr
          434 40 -448 vlineto
          -1042 913 rmoveto
          -245 hlineto
          hintmask 10001000000010100101100010000000
          -24 callsubr
          hintmask 10001001000001010001100010000000
          12 callsubr
          hintmask 10001001000001010001100010000000
          528 270 rmoveto
          -245 hlineto
          hintmask 10001000000010110001100010000000
          -24 callsubr
          hintmask 10001001000001010001011010000000
          12 callsubr
          endchar
        </CharString>
        <CharString name="Egrave">
          -107 callgsubr
          -910 713 -32 callsubr
          hintmask 100010000000111001010000
          -77 callsubr
        </CharString>
        <CharString name="Eth">
          259 -108 -82 callsubr
          0 275 38 70 0 125 0 309 38 51 callsubr
          150 496 -412 412 -225 225 70 40 222 72 0 40 399 244 72 40 hintmask 1010101001011011
          234 668 rmoveto
          -125 744 12 callgsubr
          -51 417 rmoveto
          402 160 -143 -303 hvcurveto
          -37 vlineto
          -311 -167 -131 -396 vhcurveto
          -330 hlineto
          -97 callgsubr
          1137 -465 rmoveto
          321 -151 188 -287 78 vhcurveto
          hintmask 1011010110010111
          29 -109 -131 9 -177 hhcurveto
          -728 -160 321 hlineto
          hintmask 1011011000110111
          -96 callgsubr
          hintmask 0101011010010111
          -331 -160 728 34 callgsubr
          154 206 294 vvcurveto
          112 hmoveto
          -345 -198 -254 -324 -82 vhcurveto
          hintmask 1011011010010111
          -28 -111 -161 -19 -205 hhcurveto
          -632 38 632 35 callsubr
          201 231 337 vvcurveto
          248 -82 152 -167 122 vhcurveto
          194 -98 95 -165 -259 vvcurveto
          -1466 357 rmoveto
          38 -169 -38 vlineto
          506 -504 rmoveto
          -253 40 239 vlineto
          -27 -24 rlineto
          361 177 -40 -155 hlineto
          10 16 rlineto
          -304 527 rmoveto
          -24 -23 rlineto
          176 hlineto
          234 128 -31 -62 98 hvcurveto
          94 -91 -101 37 -268 hhcurveto
          -192 -287 40 hlineto
          -462 -293 rmoveto
          85 38 -85 hlineto
          endchar
        </CharString>
        <CharString name="Euro">
          350 -29 callsubr
          -160 470 -310 227 38 70 -25 300 -275 120 0 104 0 121 -121 323 -310 -73 callgsubr
          240 49 callsubr
          325 250 hintmask 0010000100101010
          1806 440 rmoveto
          -225 hlineto
          hintmask 0100100100100110
          -181 -39 -167 -129 -270 hhcurveto
          57 callgsubr
          175 243 334 279 176 -125 -185 42 hvcurveto
          225 hlineto
          276 -38 -271 194 -398 hhcurveto
          -498 -276 37 callsubr
          hvcurveto
          hintmask 1001010000010110
          397 249 179 291 64 hvcurveto
          112 hmoveto
          -365 -60 -308 -213 -454 hhcurveto
          -208 -201 54 132 -118 hvcurveto
          -88 128 198 -60 203 hhcurveto
          426 288 197 343 66 hvcurveto
          -1158 430 rmoveto
          104 70 133 76 161 hhcurveto
          163 126 -45 -88 70 hvcurveto
          hintmask 1001100001000110
          62 -87 -125 33 -147 hhcurveto
          -137 -101 -51 -91 -75 hvcurveto
          hintmask 1001001010001010
          -591 -285 rmoveto
          -60 -120 rlineto
          926 hlineto
          60 120 rlineto
          -916 225 rmoveto
          -60 -121 rlineto
          1056 hlineto
          60 121 rlineto
          -127 -453 rmoveto
          96 199 -14 -9 rlineto
          59 hlineto
          96 197 rlineto
          -45 hlineto
          -87 -175 20 16 rlineto
          -60 hlineto
          -100 -206 rlineto
          hintmask 1001100100101010
          20 16 rlineto
          -396 hlineto
          67 -104 121 -82 155 -13 -141 50 -99 67 -49 71 5 -27 rcurveline
          -426 hmoveto
          -17 38 rlineto
          -118 hlineto
          -20 -38 rlineto
          1455 345 rmoveto
          hintmask 1001010000010110
          -28 callgsubr
          -16 rlineto
          37 vlineto
          182 -73 145 -147 96 vhcurveto
          165 -60 94 -176 -175 vvcurveto
          hintmask 1001100100101010
          -71 vlineto
          endchar
        </CharString>
        <CharString name="F">
          134 -108 268 -90 callsubr
          326 195 -125 125 134 430 -360 360 -268 -50 callgsubr
          hstemhm
          150 505 -235 235 72 41 301 72 0 40 153 62 0 11 callgsubr
          hintmask 101000100101010110000000
          -43 callsubr
          hintmask 101000010101010110000000
          38 -168 vlineto
          hintmask 101000100101010110000000
          -38 vlineto
          1146 hmoveto
          -613 hlineto
          25 23 rlineto
          -259 -41 vlineto
          hintmask 101000010101010110000000
          274 629 vlineto
          hintmask 100100100101010110000000
          -717 -334 rmoveto
          -125 622 12 callgsubr
          113 -233 rmoveto
          -625 hlineto
          18 22 rlineto
          -250 -40 vlineto
          hintmask 011010000101101010000000
          266 631 vlineto
          -24 -14 rlineto
          159 40 -183 vlineto
          82 329 rmoveto
          -28 callgsubr
          -16 rlineto
          396 40 -418 vlineto
          -664 -777 rmoveto
          160 -466 vlineto
          52 -43 rlineto
          1013 vlineto
          hintmask 101000001101010110000000
          -52 -45 rlineto
          823 hlineto
          -30 30 rlineto
          hintmask 101001000101010110000000
          -230 225 360 -1471 vlineto
          hintmask 101000001101010110000000
          -160 320 vlineto
          hintmask 101010000011010110000000
          -96 callgsubr
          -329 hlineto
          hintmask 011010000101100110000000
          -160 vlineto
          59 -70 rmoveto
          hintmask 101010000101010110000000
          -38 971 212 -40 -190 vlineto
          10 16 rlineto
          endchar
        </CharString>
        <CharString name="G">
          233 53 callsubr
          160 -160 466 -436 130 376 125 146 468 -360 360 -233 268 -160 125 hstemhm
          108 262 72 40 904 236 -198 228 42 40 -10 40 hintmask 1000011000111010
          1734 777 rmoveto
          417 -40 -395 vlineto
          10 16 rlineto
          -258 -38 hlineto
          hintmask 0100011000111001
          278 -196 rmoveto
          -651 -240 -38 280 689 vlineto
          -705 -183 rmoveto
          0 295 -101 callgsubr
          hintmask 0001011000110110
          5 12 6 18 2 8 rrcurveto
          -308 hlineto
          379 70 rmoveto
          -14 9 rlineto
          hintmask 0010010001111010
          -228 -20 -186 -157 -317 hhcurveto
          -347 -184 207 285 277 186 221 330 hvcurveto
          hintmask 1000010100111010
          226 148 -84 -151 126 hvcurveto
          236 360 -236 40 callsubr
          hintmask 0010010010110110
          159 -132 -177 101 -286 hhcurveto
          -501 -280 -326 -331 -367 285 -286 499 300 183 113 147 111 hvcurveto
          -62 69 rlineto
          hintmask 0000111000110110
          -299 228 631 -649 -125 vlineto
          361 -484 rmoveto
          -84 -130 -143 -38 -197 hhcurveto
          -230 -149 44 104 -151 hvcurveto
          hintmask 1000010010111010
          -127 113 170 -59 245 hhcurveto
          182 153 32 82 137 hvcurveto
          -478 1074 rmoveto
          -277 -167 -185 -242 -232 147 -147 247 -41 hvcurveto
          -251 88 -103 146 186 vvcurveto
          216 151 173 253 158 105 -33 -87 123 vhcurveto
          101 -80 -113 57 -193 hhcurveto
          endchar
        </CharString>
        <CharString name="H">
          578 -108 268 -90 callsubr
          -160 458 38 195 -125 125 286 -50 callgsubr
          hstemhm
          150 497 -8 callsubr
          72 40 0 227 -71 72 -1 40 -39 40 245 495 -8 callsubr
          72 40 0 229 -71 72 -1 40 hintmask 100101001001001100100000
          -43 callsubr
          hintmask 100100101001001100100000
          38 -168 vlineto
          hintmask 100101001001001100100000
          -38 vlineto
          525 hmoveto
          24 23 rlineto
          -249 vlineto
          hintmask 100100101010001100100000
          -40 264 284 hlineto
          hintmask 100101001001001100100000
          -17 -25 rlineto
          204 vlineto
          hintmask 010101001010010100100000
          40 -217 hlineto
          hintmask 010100011010100100100000
          -111 -977 rmoveto
          160 -318 vlineto
          -97 callgsubr
          318 160 -765 -160 320 hlineto
          hintmask 100101000101001100100000
          -96 callgsubr
          hintmask 010101001010100100100000
          -330 -160 hlineto
          -34 callsubr
          hintmask 100101001001001100100000
          -38 817 212 -40 -190 vlineto
          10 16 rlineto
          335 1047 rmoveto
          166 hlineto
          hintmask 100100101001001100100000
          38 -166 vlineto
          hintmask 100101001001001100100000
          -38 vlineto
          523 hmoveto
          24 23 rlineto
          -780 vlineto
          hintmask 100100101001001101001000
          -40 795 288 hlineto
          hintmask 100101001001001100100000
          -19 -25 rlineto
          204 vlineto
          hintmask 010101001001001101001000
          40 -217 hlineto
          hintmask 010100011001001101010000
          -111 -977 rmoveto
          160 -320 vlineto
          -97 callgsubr
          320 160 -765 -160 318 hlineto
          hintmask 100101001001001010100000
          -96 callgsubr
          hintmask 010101001001001101010000
          -328 -160 hlineto
          -34 callsubr
          hintmask 100011001010001101010000
          -38 815 212 -38 -190 vlineto
          10 16 rlineto
          -1486 761 rmoveto
          -125 922 12 callgsubr
          -836 -471 rmoveto
          hintmask 001101001010001100100000
          276 781 -38 -756 vlineto
          15 27 rlineto
          -265 vlineto
          endchar
        </CharString>
        <CharString name="I">
          -542 -60 callgsubr
          -33 callsubr
          hintmask 0111000100000000
          -98 callsubr
          hintmask 0111000010000000
          -121 -51 callgsubr
          hintmask 1010110000000000
          -97 callgsubr
          328 hlineto
          -55 callgsubr
          -775 -87 callsubr
          hintmask 1011001000000000
          -96 callgsubr
          hintmask 0111010000000000
          -340 -160 hlineto
          hintmask 0111000010000000
          -34 callsubr
          hintmask 1011010000000000
          -72 callgsubr
          6 callgsubr
          endchar
        </CharString>
        <CharString name="IJ">
          1066 -133 268 -243 78 -40 70 -30 165 -135 160 817 -20 58 70 0 160 -45 callsubr
          1323 72 -72 322 hintmask 0100111000101010
          -98 callsubr
          hintmask 0100110100010010
          -121 -51 callgsubr
          hintmask 1000010110001010
          -97 callgsubr
          328 hlineto
          -55 callgsubr
          -775 -87 callsubr
          hintmask 0100110101001010
          -96 callgsubr
          hintmask 0100110110001010
          -340 -160 hlineto
          hintmask 0100110100010010
          hintmask 0010010110001010
          -34 callsubr
          hintmask 0100110110001010
          -72 callgsubr
          hintmask 0010011010001010
          6 callgsubr
          678 1047 rmoveto
          0 375 -89 callsubr
          0 -375 0 0 vhcurveto
          -80 callgsubr
          hintmask 0001010110001010
          -6 callgsubr
          50 -59 rlineto
          0 -527 -83 callsubr
          954 -91 callsubr
          -300 hlineto
          50 45 rlineto
          -612 vlineto
          -118 -11 -90 -17 -55 vhcurveto
          -197 -64 -175 -88 -251 hhcurveto
          -340 -161 120 217 -66 hvcurveto
          197 75 rlineto
          -167 45 134 -80 200 hhcurveto
          hintmask 1000011010001100
          -53 callsubr
          hintmask 1000010110001010
          -19 -20 rlineto
          200 40 vlineto
          0 0 -218 0 vhcurveto
          -274 hlineto
          -49 callsubr
          endchar
        </CharString>
        <CharString name="Iacute">
          -542 -60 callgsubr
          555 -20 -45 callsubr
          hintmask 0111010010100000
          -98 callsubr
          hintmask 0111010001000000
          -121 -51 callgsubr
          hintmask 1010111000100000
          -97 callgsubr
          328 hlineto
          -55 callgsubr
          -775 -87 callsubr
          hintmask 1011010100100000
          -96 callgsubr
          hintmask 0111011000100000
          -340 -160 hlineto
          hintmask 0111010001000000
          -34 callsubr
          hintmask 1011011000100000
          -72 callgsubr
          6 callgsubr
          -161 1870 7 callgsubr
          -105 callgsubr
        </CharString>
        <CharString name="Icircumflex">
          -542 -60 callgsubr
          -160 305 410 -20 -45 callsubr
          hintmask 0111001001010000
          -98 callsubr
          hintmask 0111001000100000
          -121 -51 callgsubr
          hintmask 1010101100010000
          -97 callgsubr
          328 hlineto
          -55 callgsubr
          -775 -87 callsubr
          hintmask 1011001010010000
          -96 callgsubr
          hintmask 0111001100010000
          -340 -160 hlineto
          hintmask 0111001000100000
          -34 callsubr
          hintmask 1010011100010000
          -72 callgsubr
          6 callgsubr
          -808 1460 -107 callsubr
        </CharString>
        <CharString name="Idieresis">
          -542 8 267 73 200 endchar
        </CharString>
        <CharString name="Igrave">
          -542 54 267 73 193 endchar
        </CharString>
        <CharString name="Itilde">
          -542 -72 267 73 196 endchar
        </CharString>
        <CharString name="J">
          -82 -133 268 -165 165 842 -29 callgsubr
          944 227 0 322 -250 40 hintmask 01101010
          527 977 rmoveto
          0 375 -89 callsubr
          0 -375 0 0 vhcurveto
          -80 callgsubr
          135 -842 rmoveto
          -200 -134 80 167 -45 hvcurveto
          -197 -75 rlineto
          -217 66 161 -120 340 hhcurveto
          251 175 88 197 64 hvcurveto
          17 55 11 90 118 vvcurveto
          612 vlineto
          hintmask 01011010
          -50 -45 rlineto
          300 hlineto
          -55 callgsubr
          -954 -91 callsubr
          0 527 -101 callgsubr
          -50 59 rlineto
          -618 vlineto
          -120 -5 -67 -12 -45 vhcurveto
          -110 -31 -104 -49 -130 hhcurveto
          hintmask 10101010
          7 -268 rmoveto
          278 225 117 238 81 hvcurveto
          21 67 9 87 139 vvcurveto
          485 vlineto
          -24 -23 rlineto
          274 -18 callgsubr
          218 0 vhcurveto
          hintmask 10100100
          -40 -200 hlineto
          19 20 rlineto
          hintmask 10101010
          -269 -497 hlineto
          -136 -10 -82 -17 -60 vhcurveto
          -237 -76 -221 -98 -264 hhcurveto
          -187 -140 38 80 -125 hvcurveto
          -107 105 140 -49 221 hhcurveto
          -291 472 rmoveto
          36 -70 71 -52 105 -12 -63 22 -77 52 -34 74 rrcurveto
          endchar
        </CharString>
        <CharString name="Jcircumflex">
          -82 -133 268 -165 165 842 -14 callsubr
          107 108 340 -20 hstemhm
          944 227 0 322 -250 40 hintmask 1010011101000000
          527 977 rmoveto
          0 375 -101 callgsubr
          hintmask 1001011101000000
          -35 callsubr
          -375 -101 callgsubr
          hintmask 0110011101000000
          -80 callgsubr
          -6 callgsubr
          hintmask 0100111101000000
          50 -59 rlineto
          0 -527 -83 callsubr
          954 -91 callsubr
          -300 hlineto
          50 45 rlineto
          -612 vlineto
          -118 -11 -90 -17 -55 vhcurveto
          -197 -64 -175 -88 -251 hhcurveto
          -340 -161 120 217 -66 hvcurveto
          197 75 rlineto
          -167 45 134 -80 200 hhcurveto
          hintmask 1001011101000000
          -53 callsubr
          hintmask 1010011010000000
          -19 -20 rlineto
          200 40 vlineto
          0 0 -218 0 vhcurveto
          -274 hlineto
          hintmask 1010011101000000
          -49 callsubr
          647 1414 -94 callgsubr
          3 callgsubr
          -19 callsubr
        </CharString>
        <CharString name="K">
          460 -60 callgsubr
          hstemhm
          150 497 -8 callsubr
          -227 495 -196 40 0 197 hintmask 1011010001000000
          5 callsubr
          0 168 0 0 vhcurveto
          -22 callgsubr
          -80 callgsubr
          525 hmoveto
          24 23 rlineto
          -331 vlineto
          hintmask 1011010010000000
          -40 -26 rlineto
          372 256 vlineto
          hintmask 0111010001000000
          -19 -74 callgsubr
          hintmask 0111000100000000
          -81 -51 callgsubr
          hintmask 1010110001000000
          -97 callgsubr
          hintmask 1010100100000000
          318 hlineto
          -55 callgsubr
          hintmask 1010110001000000
          -765 -87 callsubr
          hintmask 1011001001000000
          -96 callgsubr
          hintmask 0111010001000000
          -330 -160 hlineto
          hintmask 0111000100000000
          -34 callsubr
          hintmask 1010110001000000
          -80 callgsubr
          817 -24 callgsubr
          -372 452 rmoveto
          1117 727 -93 -24 rlineto
          0 280 -83 callsubr
          0 -730 -101 callgsubr
          -160 374 vlineto
          -36 39 -912 -589 rlineto
          236 100 rmoveto
          575 -522 57 47 rlineto
          -284 hlineto
          hintmask 0111010001000000
          -160 vlineto
          0 750 -83 callsubr
          0 -340 -101 callgsubr
          127 -50 -718 648 rlineto
          1043 -654 rmoveto
          hintmask 1011010010000000
          0 0 -212 0 vhcurveto
          0 -819 -89 callsubr
          0 777 -101 callgsubr
          174 vlineto
          -766 594 rmoveto
          0 524 -478 0 vhcurveto
          0 -59 -101 callgsubr
          -512 462 512 333 rlineto
          292 hlineto
          -19 -74 callgsubr
          -325 hlineto
          45 13 -495 -323 rlineto
          -296 -190 rmoveto
          -29 27 -222 -146 rlineto
          -138 40 147 vlineto
          -21 -43 rlineto
          endchar
        </CharString>
        <CharString name="L">
          101 -108 268 -90 callsubr
          -160 450 517 -20 58 240 -90 callsubr
          hstemhm
          160 487 -8 callsubr
          72 40 583 225 0 72 hintmask 1001101010100000
          203 967 rmoveto
          0 175 -89 callsubr
          0 -175 0 0 vhcurveto
          -80 callgsubr
          532 hmoveto
          24 23 rlineto
          -770 -40 785 306 vlineto
          -27 -20 rlineto
          210 40 vlineto
          0 0 -228 0 vhcurveto
          -818 -1037 rmoveto
          -80 callgsubr
          1459 -18 callgsubr
          502 0 vhcurveto
          -40 -488 hlineto
          0 18 24 0 vhcurveto
          hintmask 1001010111000000
          -730 1155 rmoveto
          -55 callgsubr
          -784 -91 callsubr
          0 327 38 callsubr
          hintmask 0101101011000000
          -320 -160 1407 hlineto
          hintmask 0011101011000000
          450 -225 -320 vlineto
          hintmask 1001011011000000
          30 30 rlineto
          -775 hlineto
          -97 callgsubr
          endchar
        </CharString>
        <CharString name="Lslash">
          101 -108 268 -90 callsubr
          -160 450 517 278 -240 240 -90 callsubr
          hstemhm
          143 504 -480 480 -453 453 -226 226 -226 298 -298 506 -168 303 -303 375 208 11 callgsubr
          hintmask 1001001000001011
          378 967 rmoveto
          hintmask 1000101000001011
          38 -175 vlineto
          hintmask 1001000000101011
          -38 vlineto
          532 hmoveto
          24 23 rlineto
          -169 vlineto
          -40 -13 rlineto
          hintmask 1000100000101011
          197 306 vlineto
          -27 -20 rlineto
          210 40 vlineto
          hintmask 1001001000001011
          -228 vlineto
          -811 -1037 rmoveto
          -38 1452 502 -40 -488 vlineto
          18 24 rlineto
          hintmask 1000010000010011
          -730 1155 rmoveto
          160 vlineto
          hintmask 1000011000001011
          -784 -160 328 hlineto
          hintmask 1001000001001011
          -96 callgsubr
          hintmask 0101000100001011
          -314 -160 1400 hlineto
          hintmask 0011001000001011
          450 -225 -320 vlineto
          hintmask 1000011000001011
          30 30 rlineto
          -776 hlineto
          51 -43 rlineto
          1013 vlineto
          -51 -45 rlineto
          hintmask 1000010000010011
          hintmask 1001000010001011
          466 -369 rmoveto
          155 vlineto
          -868 -302 rlineto
          -155 vlineto
          565 -194 rmoveto
          hintmask 1001000000100111
          -40 297 hlineto
          428 152 36 callgsubr
          -433 -153 18 29 rlineto
          -374 -148 rmoveto
          41 vlineto
          -131 -46 rlineto
          -41 vlineto
          endchar
        </CharString>
        <CharString name="M">
          902 -108 268 -90 callsubr
          817 268 hstemhm
          150 497 -8 callsubr
          70 40 118 72 683 457 -8 callsubr
          70 40 158 72 hintmask 1011011011100000
          5 callsubr
          0 168 0 0 vhcurveto
          -22 callgsubr
          -80 callgsubr
          507 -145 rmoveto
          40 -71 rlineto
          -541 -40 vlineto
          -507 -290 rmoveto
          -80 callgsubr
          777 -24 callgsubr
          1200 1085 rmoveto
          -795 40 773 vlineto
          0 -9 -16 0 vhcurveto
          279 -18 callgsubr
          218 0 vhcurveto
          -40 -196 hlineto
          0 10 16 0 vhcurveto
          -747 -1085 rmoveto
          -80 callgsubr
          777 -24 callgsubr
          -1235 141 rmoveto
          0 121 -101 callgsubr
          570 1086 rlineto
          0 -33 -24 -3 vvcurveto
          -1013 vlineto
          50 43 rlineto
          hintmask 0111011101100000
          0 -277 0 -3 vhcurveto
          -160 725 160 -330 vlineto
          62 -54 rlineto
          1038 vlineto
          -52 -59 rlineto
          0 320 -83 callsubr
          -650 hlineto
          -500 -953 rlineto
          0 134 -101 callgsubr
          -539 953 rlineto
          -650 -87 callsubr
          hintmask 1010111101100000
          -96 callgsubr
          hintmask 0111011101100000
          -330 -160 725 160 hlineto
          -3 -277 0 0 hvcurveto
          52 -43 rlineto
          1013 vlineto
          -52 25 rlineto
          318 39 rmoveto
          0 44 -101 callgsubr
          349 -612 rlineto
          0 -23 -42 0 vhcurveto
          -11 -540 rmoveto
          0 21 -38 0 vhcurveto
          103 hlineto
          0 416 799 0 vhcurveto
          83 vlineto
          -450 -860 rlineto
          0 24 16 0 vhcurveto
          endchar
        </CharString>
        <CharString name="N">
          637 0 callgsubr
          -70 70 977 -20 128 160 hstemhm
          170 475 -225 297 -297 495 695 -64 callsubr
          hintmask 1011010100000000
          5 callsubr
          0 168 0 0 vhcurveto
          -22 callgsubr
          -80 callgsubr
          507 -81 rmoveto
          40 -44 rlineto
          -632 -40 vlineto
          1118 -220 rmoveto
          1130 vlineto
          3 -50 -48 0 vhcurveto
          320 hlineto
          -55 callgsubr
          -765 -87 callsubr
          -50 59 rlineto
          -928 vlineto
          80 39 -955 990 rlineto
          -585 -87 callsubr
          -83 callgsubr
          60 54 rlineto
          hintmask 1011100100000000
          -310 -160 hlineto
          hintmask 1011001100000000
          44 callsubr
          hintmask 1011100100000000
          -47 callgsubr
          1013 vlineto
          -50 -45 1025 -1085 rlineto
          hintmask 0111100100000000
          -1390 -70 rmoveto
          hintmask 1011100100000000
          -80 callgsubr
          797 -64 callgsubr
          -190 hlineto
          hintmask 0111100010000000
          0 18 16 0 vhcurveto
          395 1047 rmoveto
          0 168 0 0 vhcurveto
          -22 callgsubr
          -80 callgsubr
          507 38 rmoveto
          297 hlineto
          -27 -28 rlineto
          208 40 vlineto
          0 0 -218 0 vhcurveto
          -294 hlineto
          24 15 rlineto
          hintmask 1011100100000000
          -1100 -267 vlineto
          hintmask 0111100010000000
          0 0 -63 callgsubr
          237 hlineto
          0 -10 -24 0 vhcurveto
          -979 1289 rmoveto
          0 -53 -101 callgsubr
          696 -706 rlineto
          0 0 58 0 vhcurveto
          endchar
        </CharString>
        <CharString name="Nacute">
          637 771 267 78 194 endchar
        </CharString>
        <CharString name="Ntilde">
          637 -60 callgsubr
          100 46 callsubr
          170 475 -225 -64 callsubr
          -297 495 695 -64 callsubr
          hintmask 0111010010010100
          5 callsubr
          0 168 0 0 vhcurveto
          -22 callgsubr
          -80 callgsubr
          507 -81 rmoveto
          40 -44 rlineto
          -632 -40 vlineto
          1118 -220 rmoveto
          1130 vlineto
          hintmask 1010110010100100
          3 -50 -48 0 vhcurveto
          320 hlineto
          -55 callgsubr
          -765 -87 callsubr
          -50 59 rlineto
          -928 vlineto
          80 39 -955 990 rlineto
          -585 -87 callsubr
          -83 callgsubr
          60 54 rlineto
          hintmask 0111010011000100
          -310 -160 hlineto
          hintmask 0111010010001100
          44 callsubr
          hintmask 0110110011000100
          -47 callgsubr
          1013 vlineto
          -50 -45 1025 -1085 rlineto
          -1390 -70 rmoveto
          hintmask 1011001011000010
          -80 callgsubr
          797 -3 callsubr
          18 16 0 vhcurveto
          395 1047 rmoveto
          0 168 0 0 vhcurveto
          -22 callgsubr
          -80 callgsubr
          507 38 rmoveto
          297 hlineto
          -27 -28 rlineto
          208 40 vlineto
          0 0 -218 0 vhcurveto
          -294 hlineto
          24 15 rlineto
          -1100 -267 vlineto
          0 0 -63 callgsubr
          237 hlineto
          0 -10 -24 0 vhcurveto
          -979 1289 rmoveto
          0 -53 -101 callgsubr
          696 -706 rlineto
          0 0 58 0 vhcurveto
          -598 1183 -101 callsubr
          hintmask 1011000101000100
          -62 callsubr
          hintmask 1011010011000100
          -78 callgsubr
          -106 callsubr
          -66 callsubr
        </CharString>
        <CharString name="O">
          206 -29 callsubr
          882 3 callsubr
          -1 callsubr
          972 -1 callsubr
          hintmask 10011111
          -100 callsubr
          hintmask 01101111
          -106 callgsubr
          hintmask 10101111
          -84 callgsubr
          endchar
        </CharString>
        <CharString name="OE">
          1282 -138 108 -40 70 0 130 -130 160 -160 390 -230 336 -106 395 -327 16 callsubr
          -73 -73 callgsubr
          125 -125 160 hstemhm
          110 240 72 40 992 226 72 40 471 40 369 72 0 40 hintmask 101001000100001111110100
          909 -30 rmoveto
          293 217 117 206 137 hvcurveto
          -68 770 rlineto
          145 -131 -227 72 -219 hhcurveto
          -477 -324 -297 -382 -416 404 -215 395 hvcurveto
          -487 636 rmoveto
          246 199 198 286 155 150 -65 -111 88 vhcurveto
          hintmask 101001001010100111110100
          102 -128 -138 36 -127 hhcurveto
          -260 -185 -11 callgsubr
          478 -476 -37 callsubr
          495 -143 rmoveto
          -90 -142 -152 -35 -192 hhcurveto
          -230 -220 68 138 -128 hvcurveto
          -98 137 231 -70 210 hhcurveto
          178 166 34 102 142 hvcurveto
          hintmask 101001001011001111110100
          1010 941 rmoveto
          -637 -38 callgsubr
          -249 -40 vlineto
          hintmask 101001000100001111110100
          264 653 vlineto
          hintmask 010000100001010111111000
          267 230 rmoveto
          -1217 -1245 1217 390 -225 hlineto
          hintmask 101001001011010111111000
          -260 vlineto
          30 30 rlineto
          -847 hlineto
          -97 callgsubr
          847 hlineto
          -30 30 rlineto
          -260 225 vlineto
          hintmask 010001001011001111110100
          -1157 -925 rmoveto
          -38 1269 442 -40 -428 vlineto
          22 callsubr
          hintmask 100010010100001111110100
          111 -233 rmoveto
          -529 hlineto
          18 22 rlineto
          -260 -40 vlineto
          hintmask 101001000100001111110100
          276 543 vlineto
          -32 -14 rlineto
          159 40 vlineto
          hintmask 100010010011001111110100
          204 106 rmoveto
          hintmask 100100100001001111110100
          -30 callsubr
          434 40 vlineto
          hintmask 101001001011001111110100
          -448 vlineto
          endchar
        </CharString>
        <CharString name="Oacute">
          -33 callgsubr
          72 38 70 340 -20 hstemhm
          110 -1 callsubr
          972 -1 callsubr
          hintmask 1001011111100000
          -100 callsubr
          hintmask 0110111111100000
          -106 callgsubr
          hintmask 1010111111100000
          -84 callgsubr
          -527 1176 7 callgsubr
          -105 callgsubr
        </CharString>
        <CharString name="Ocircumflex">
          206 351 267 79 195 endchar
        </CharString>
        <CharString name="Odieresis">
          -33 callgsubr
          72 38 70 0 200 hstemhm
          110 -1 callsubr
          0 222 72 40 253 -1 callgsubr
          28 -1 callsubr
          hintmask 1001010110111110
          -100 callsubr
          hintmask 0110110110111110
          -106 callgsubr
          hintmask 1010101101111110
          -84 callgsubr
          -1072 1036 -81 callsubr
          hintmask 1010110101111110
          -104 callsubr
          hintmask 1010101101111110
          528 9 callgsubr
          hintmask 1010110101111110
          -104 callsubr
          endchar
        </CharString>
        <CharString name="Ograve">
          206 413 267 79 193 endchar
        </CharString>
        <CharString name="Oslash">
          206 -329 108 79 42 70 160 882 -82 callsubr
          -160 344 hstemhm
          110 240 79 40 985 240 72 40 hintmask 1110101111000000
          909 -30 rmoveto
          461 324 290 364 376 -290 280 -493 -472 -329 -313 -366 -416 404 -215 395 hvcurveto
          71 1037 rmoveto
          hintmask 1111001111000000
          4 -25 -24 1 -24 hhcurveto
          -260 -178 -182 -222 -100 41 -80 75 -75 hvcurveto
          -20 -32 rlineto
          -90 74 -46 95 118 vvcurveto
          246 192 196 286 31 33 -3 -5 30 vhcurveto
          -101 -912 -37 callsubr
          -472 -351 rmoveto
          hintmask 1110011111000000
          1106 1685 rlineto
          -154 hlineto
          -1106 -1685 rlineto
          1224 1446 rmoveto
          222 -145 86 -192 -264 vvcurveto
          -462 -396 -304 -501 -87 -142 8 25 -78 vhcurveto
          29 -3 -140 -217 rlineto
          -181 hlineto
          19 38 rlineto
          150 hlineto
          -20 -17 153 241 rlineto
          -28 80 134 -5 83 hhcurveto
          456 401 280 444 258 -88 180 -219 145 hvcurveto
          134 206 rlineto
          45 hlineto
          -132 -206 rlineto
          -244 -291 rmoveto
          11 -7 13 -8 9 -10 -459 -701 rcurveline
          -12 1 -19 2 -15 3 rrcurveto
          endchar
        </CharString>
        <CharString name="Otilde">
          -33 callgsubr
          65 34 callsubr
          110 -1 callsubr
          972 -1 callsubr
          hintmask 1001010101111000
          -100 callsubr
          hintmask 0110110101111000
          -106 callgsubr
          hintmask 1010110011111000
          -84 callgsubr
          -1008 1106 -101 callsubr
          hintmask 1010101001111000
          -62 callsubr
          hintmask 1010110011111000
          -78 callgsubr
          hintmask 1010110101111000
          -106 callsubr
          -66 callsubr
        </CharString>
        <CharString name="P">
          91 0 callgsubr
          160 245 -38 -82 callsubr
          0 380 49 callsubr
          159 488 -8 callsubr
          70 40 631 244 71 44 hintmask 1100101101110000
          223 -108 42 callgsubr
          862 -23 callgsubr
          190 40 vlineto
          0 0 -212 0 vhcurveto
          -238 513 rmoveto
          234 95 6 26 110 hvcurveto
          245 59 142 160 224 vvcurveto
          137 -53 96 -110 79 vhcurveto
          137 -58 70 -135 -119 vvcurveto
          -236 -156 -187 -282 -62 vhcurveto
          hintmask 1010101101110000
          -19 -84 -125 -9 -223 hhcurveto
          -144 -38 callgsubr
          0 0 -14 -156 vvcurveto
          -40 hlineto
          hintmask 1101010101110000
          185 vlineto
          -519 572 rmoveto
          0 159 -101 callgsubr
          hintmask 1100101101110000
          -35 callsubr
          -159 -101 callgsubr
          hintmask 1101010101110000
          -80 callgsubr
          399 -817 rmoveto
          -97 callgsubr
          379 hlineto
          102 81 -5 -16 62 hvcurveto
          118 -32 49 -67 -102 vvcurveto
          -104 -38 -68 -115 -34 vhcurveto
          hintmask 1010101011110000
          -17 -62 -84 -5 -113 hhcurveto
          -395 -91 callsubr
          352 hlineto
          152 133 5 32 108 hvcurveto
          203 63 103 148 148 vvcurveto
          181 -87 126 -237 45 vhcurveto
          18 -98 -124 4 -153 hhcurveto
          -789 -91 callsubr
          0 326 -101 callgsubr
          -83 callgsubr
          hintmask 1100101101110000
          50 callgsubr
          844 160 hlineto
          -34 855 rmoveto
          204 102 -20 -56 33 hvcurveto
          hintmask 1101010101110000
          -2 callsubr
          -236 -38 callgsubr
          -305 -40 vlineto
          hintmask 1100101101110000
          320 vlineto
          endchar
        </CharString>
        <CharString name="Q">
          226 -349 108 103 -82 callsubr
          -160 425 617 3 callsubr
          -1 callsubr
          992 -1 callsubr
          hintmask 1001011111000000
          1220 -241 rmoveto
          276 hlineto
          -401 636 rlineto
          -276 hlineto
          101 -425 rmoveto
          506 288 290 364 376 -251 280 -541 -518 -294 -313 -366 -416 377 -215 433 hvcurveto
          -488 636 rmoveto
          246 176 198 310 164 132 -65 -111 86 vhcurveto
          hintmask 1010101111000000
          102 -125 -122 36 -135 hhcurveto
          -282 -164 -11 callgsubr
          479 -476 rmoveto
          -314 -237 175 304 308 232 203 326 337 209 -194 -302 -262 -193 -232 -360 hvcurveto
          511 -101 rmoveto
          214 113 150 217 265 vvcurveto
          222 -126 220 -202 128 vhcurveto
          233 -109 135 -217 -244 vvcurveto
          -278 -151 -222 -215 -121 vhcurveto
          5 32 244 -384 rlineto
          -425 -18 callgsubr
          -63 callgsubr
          374 -23 callgsubr
          -551 202 rmoveto
          hintmask 1100101111000000
          -6 -33 -68 -7 -76 hhcurveto
          -249 -202 68 138 -128 hvcurveto
          -98 137 215 -70 227 hhcurveto
          64 39 3 8 51 hvcurveto
          214 405 rmoveto
          0 -32 -24 0 vhcurveto
          -42 66 rlineto
          47 hlineto
          endchar
        </CharString>
        <CharString name="R">
          295 -108 -46 callgsubr
          529 244 -244 316 hintmask 1001010100100100
          -103 callgsubr
          hintmask 1010010100101000
          -8 callgsubr
          hintmask 1001001010001000
          -36 callsubr
          hintmask 1010010110001000
          -35 callsubr
          -159 -101 callgsubr
          hintmask 1010101010001000
          -79 callsubr
          hintmask 1001010101001000
          -15 -60 -79 -5 -101 hhcurveto
          -427 -91 callsubr
          354 hlineto
          180 146 10 36 114 hvcurveto
          191 60 98 119 151 vvcurveto
          167 -90 121 -234 44 vhcurveto
          18 -98 -124 4 -153 hhcurveto
          -819 -91 callsubr
          0 326 -101 callgsubr
          -83 callgsubr
          hintmask 1010010110001000
          50 callgsubr
          hlineto
          hintmask 0101010100011000
          -92 callgsubr
          hintmask 1010101000101000
          -77 callgsubr
          hintmask 1010010100101000
          -5 callgsubr
          hintmask 1010101010001000
          -2 callsubr
          endchar
        </CharString>
        <CharString name="Racute">
          295 624 267 82 194 endchar
        </CharString>
        <CharString name="Rcaron">
          295 -108 2 callsubr
          160 145 -38 108 340 -20 13 callgsubr
          529 244 -244 316 hintmask 1001010101001001
          -103 callgsubr
          hintmask 1010010101001010
          -8 callgsubr
          hintmask 1001001101100010
          -36 callsubr
          hintmask 1010010101100010
          -35 callsubr
          -159 -101 callgsubr
          hintmask 1010101101100010
          -79 callsubr
          hintmask 1001010101100010
          -15 -60 -79 -5 -101 hhcurveto
          -427 -91 callsubr
          354 hlineto
          180 146 10 36 114 hvcurveto
          191 60 98 119 151 vvcurveto
          167 -90 121 -234 44 vhcurveto
          18 -98 -124 4 -153 hhcurveto
          -819 hlineto
          hintmask 1010101101010010
          -86 callgsubr
          0 326 38 callsubr
          hintmask 0101010101100010
          -321 -160 hlineto
          hintmask 0101010101000110
          -92 callgsubr
          hintmask 1010101101001010
          -77 callgsubr
          hintmask 1010010101001010
          -5 callgsubr
          hintmask 1010101011100010
          -2 callsubr
          -108 776 -94 callgsubr
          3 callgsubr
          hintmask 1010010101100010
          -19 callsubr
        </CharString>
        <CharString name="Rcommaaccent">
          295 32 callgsubr
          96 -46 callgsubr
          246 72 -72 500 -217 244 -244 316 hintmask 101001010100101001000000
          -103 callgsubr
          hintmask 101010010100101001000000
          -8 callgsubr
          hintmask 101001001010001001000000
          -36 callsubr
          hintmask 101010010110001001000000
          -35 callsubr
          -159 -101 callgsubr
          hintmask 101010101010001010000000
          -79 callsubr
          hintmask 101001010101001010000000
          -15 -60 -79 -5 -101 hhcurveto
          -427 -91 callsubr
          354 hlineto
          180 146 10 36 114 hvcurveto
          191 60 98 119 151 vvcurveto
          167 -90 121 -234 44 vhcurveto
          18 -98 -124 4 -153 hhcurveto
          -819 -91 callsubr
          0 326 -101 callgsubr
          -83 callgsubr
          hintmask 101010010110001001000000
          50 callgsubr
          hlineto
          hintmask 100101010100010100000000
          -92 callgsubr
          hintmask 101010101000101001000000
          -77 callgsubr
          hintmask 101010010100101001000000
          -5 callgsubr
          hintmask 101010101010001001000000
          -2 callsubr
          -72 -1623 -65 callgsubr
          hintmask 011010010110001001000000
          -58 callgsubr
        </CharString>
        <CharString name="S">
          126 -138 267 17 callgsubr
          -195 230 -160 125 hstemhm
          180 225 -185 270 824 39 callgsubr
          hintmask 1000001011001000
          490 951 rmoveto
          78 118 91 227 vhcurveto
          hintmask 1000100101001000
          216 185 -102 -133 79 hvcurveto
          225 360 -225 40 callsubr
          hintmask 0100010010101000
          133 -135 -165 127 -295 hhcurveto
          -395 -203 -167 -175 -189 167 -159 419 -44 hvcurveto
          364 -37 144 46 callgsubr
          hintmask 0011000101001000
          -217 -208 73 158 -175 29 callsubr
          hintmask 0101000010101000
          -150 208 211 -80 271 43 callsubr
          -156 128 -490 58 hvcurveto
          -349 43 -90 81 98 vvcurveto
          -13 -922 rmoveto
          -99 vlineto
          0 -237 0 0 vhcurveto
          -80 callgsubr
          0 279 -101 callgsubr
          hintmask 0011000101001000
          108 vlineto
          -27 -22 rlineto
          hintmask 1001000100011000
          -71 132 172 -45 221 hhcurveto
          370 300 167 291 86 -44 91 -63 45 hvcurveto
          54 -71 13 -66 -85 vvcurveto
          -283 -307 -137 -322 -212 -169 45 84 -160 vhcurveto
          898 748 rmoveto
          -10 callsubr
          395 42 vlineto
          0 0 -417 0 vhcurveto
          -1405 -79 rmoveto
          90 -117 145 -68 308 -36 301 -34 120 -37 26 -73 -75 46 -80 25 -312 36 -328 40 -176 104 -19 114 rrcurveto
          324 259 rmoveto
          hintmask 1000010101001000
          55 122 38 160 119 112 -44 -58 66 vhcurveto
          33 -74 -117 32 -104 hhcurveto
          -145 -94 -28 -28 -45 hvcurveto
          endchar
        </CharString>
        <CharString name="T">
          242 -108 268 -90 callsubr
          595 490 -420 420 47 callsubr
          115 -64 callsubr
          405 -64 callsubr
          340 290 -225 -64 callsubr
          hintmask 1000110100110000
          1477 977 rmoveto
          -347 -38 callgsubr
          -780 -40 795 363 vlineto
          hintmask 1000101101010000
          -610 70 rmoveto
          -83 callgsubr
          54 54 rlineto
          -394 hlineto
          hintmask 0100101101001000
          -160 905 160 vlineto
          -3 -377 0 0 hvcurveto
          40 -43 rlineto
          1013 vlineto
          -50 -45 rlineto
          557 hlineto
          -30 30 rlineto
          hintmask 1001000101001000
          -290 225 420 -1629 -420 225 290 vlineto
          hintmask 1000101101010000
          -30 -30 rlineto
          1269 -368 rmoveto
          hintmask 1010000101000100
          0 0 -63 callgsubr
          247 hlineto
          0 -10 -24 0 vhcurveto
          464 40 vlineto
          0 0 -478 0 vhcurveto
          -1319 -787 rmoveto
          -80 callgsubr
          957 -18 callgsubr
          212 0 vhcurveto
          hintmask 1000110011010000
          -40 -190 hlineto
          0 10 16 0 vhcurveto
          -1052 1085 rmoveto
          363 -38 -347 -38 callgsubr
          -283 -277 vlineto
          hintmask 1010000011010000
          -10 callsubr
          endchar
        </CharString>
        <CharString name="Thorn">
          87 0 callgsubr
          142 108 160 355 -38 -82 callsubr
          -18 -20 38 90 -20 callgsubr
          hstemhm
          144 501 -225 225 -66 66 70 40 241 40 -9 40 321 244 71 40 hintmask 1101011010010111
          1067 164 rmoveto
          -272 -844 38 814 vlineto
          -10 -16 rlineto
          266 50 vlineto
          381 245 167 268 137 -54 95 -79 55 hvcurveto
          111 -40 62 -108 -138 vvcurveto
          -298 -266 -176 -400 vhcurveto
          -36 hlineto
          -684 835 rmoveto
          38 -159 -38 vlineto
          397 -142 rmoveto
          454 hlineto
          92 68 -9 -19 46 hvcurveto
          88 -38 45 -71 -84 vvcurveto
          -77 -32 -70 -99 -35 vhcurveto
          hintmask 1110011000110111
          -15 -43 -67 -7 -107 hhcurveto
          -461 -160 497 hlineto
          361 195 152 212 247 -169 134 -444 hvcurveto
          -425 hlineto
          hintmask 1101010110010111
          -450 250 rmoveto
          -160 326 vlineto
          hintmask 1110011001010111
          -96 callgsubr
          -321 -160 796 160 -360 hlineto
          -97 callgsubr
          330 hlineto
          hintmask 1110100110010111
          160 vlineto
          44 -480 rmoveto
          226 64 -17 -59 35 hvcurveto
          hintmask 1101011010010111
          25 -52 -75 13 -198 hhcurveto
          -238 -38 callgsubr
          -282 -40 vlineto
          hintmask 1110011010011011
          297 vlineto
          281 288 rmoveto
          142 40 -142 vlineto
          endchar
        </CharString>
        <CharString name="U">
          434 -133 268 -90 callsubr
          842 -29 callgsubr
          369 11 callgsubr
          0 231 523 11 callgsubr
          0 240 hintmask 0110110110000000
          1250 977 rmoveto
          0 168 0 0 vhcurveto
          -22 callgsubr
          57 callsubr
          -242 -191 132 246 hvcurveto
          631 vlineto
          hintmask 0101110110000000
          -50 -59 rlineto
          0 321 -83 callsubr
          -765 -91 callsubr
          319 hlineto
          -50 45 rlineto
          -617 vlineto
          -323 240 -215 418 315 261 132 254 66 vhcurveto
          11 47 5 81 121 vvcurveto
          520 vlineto
          -50 -45 rlineto
          320 hlineto
          -55 callgsubr
          -765 -87 callsubr
          -50 59 rlineto
          -517 vlineto
          -167 -4 -45 -25 -82 vhcurveto
          -107 -39 -123 -91 -242 hhcurveto
          -461 -108 rmoveto
          hintmask 1010110110000000
          -101 94 178 -59 189 hhcurveto
          431 339 242 404 hvcurveto
          487 vlineto
          -16 -23 rlineto
          296 -18 callgsubr
          217 0 vhcurveto
          hintmask 1010110101000000
          -40 -207 hlineto
          19 28 rlineto
          hintmask 1010101110000000
          -299 -501 hlineto
          -400 -337 -209 -393 -170 -147 46 76 -144 35 callgsubr
          -22 callgsubr
          -80 callgsubr
          546 23 rmoveto
          -24 -23 rlineto
          295 -59 callgsubr
          -298 -502 hlineto
          -183 107 -128 235 vhcurveto
          -215 26 -87 128 157 vvcurveto
          endchar
        </CharString>
        <CharString name="Uacute">
          434 -133 -14 callsubr
          0 67 775 268 -230 375 -305 160 145 70 340 -20 hstemhm
          369 225 0 343 -271 40 754 225 0 352 -280 40 hintmask 1000100111011010
          1250 977 rmoveto
          0 168 -101 callgsubr
          hintmask 1000010011011010
          -22 callgsubr
          hintmask 0010100111011010
          -22 callsubr
          hintmask 0010001111011010
          -86 callsubr
          hintmask 0101010011011010
          -7 callgsubr
          hintmask 1000100111010100
          -19 -74 callgsubr
          -296 hlineto
          hintmask 1000100111011010
          -34 callgsubr
          hintmask 1000010011011010
          -22 callgsubr
          hintmask 0101100111011010
          -20 callsubr
          hintmask 1000010011011010
          502 298 vlineto
          hintmask 1000100110101010
          -27 -74 callgsubr
          -295 hlineto
          hintmask 1000100111011010
          24 23 rlineto
          652 800 7 callgsubr
          -105 callgsubr
        </CharString>
        <CharString name="Ucircumflex">
          434 458 267 85 195 endchar
        </CharString>
        <CharString name="Udieresis">
          434 -133 -14 callsubr
          0 67 775 -14 callsubr
          145 70 0 200 hstemhm
          369 11 callgsubr
          122 72 40 253 267 50 0 40 135 72 40 240 hintmask 100010010111110110000000
          1250 977 rmoveto
          0 168 -101 callgsubr
          hintmask 100001010111110110000000
          -22 callgsubr
          hintmask 001010010111110110000000
          -22 callsubr
          hintmask 001000110111101110000000
          -86 callsubr
          hintmask 010101010111110110000000
          -7 callgsubr
          -19 -28 rlineto
          207 40 vlineto
          hintmask 100010010111110110000000
          0 0 -217 0 vhcurveto
          -296 hlineto
          -34 callgsubr
          hintmask 100001010111110110000000
          -22 callgsubr
          hintmask 010110010111110110000000
          -20 callsubr
          hintmask 100001010111110110000000
          502 298 vlineto
          -27 -28 rlineto
          207 40 vlineto
          hintmask 100010001111110110000000
          0 0 -217 0 vhcurveto
          -295 -38 callgsubr
          122 660 -81 callsubr
          hintmask 100010010111110110000000
          -104 callsubr
          hintmask 100010001111110110000000
          528 9 callgsubr
          hintmask 100010010111101110000000
          -104 callsubr
          endchar
        </CharString>
        <CharString name="Ugrave">
          434 515 267 85 193 endchar
        </CharString>
        <CharString name="V">
          392 16 callgsubr
          997 -20 58 70 160 -20 hstem
          1976 72 vstem
          910 hmoveto
          216 hlineto
          659 1144 -73 -59 rlineto
          264 160 hlineto
          0 -752 0 0 vhcurveto
          -86 callgsubr
          329 hlineto
          4 85 -544 -996 rlineto
          0 39 -1 0 vhcurveto
          -518 959 -28 -47 rlineto
          342 160 hlineto
          0 -798 0 0 vhcurveto
          -86 callgsubr
          0 280 -101 callgsubr
          -55 24 rlineto
          -160 -132 rmoveto
          0 164 -101 callgsubr
          0 -22 11 callsubr
          -142 0 0 vhcurveto
          -80 callgsubr
          619 25 rmoveto
          332 -618 -24 -41 -361 672 rlineto
          266 hlineto
          -27 -74 callgsubr
          -243 hlineto
          17 25 rlineto
          1059 -25 rmoveto
          295 -59 callgsubr
          -286 hlineto
          -624 -1101 rlineto
          0 24 16 0 vhcurveto
          -204 hlineto
          0 21 -38 0 vhcurveto
          193 hlineto
          0 628 1108 0 vhcurveto
          -538 -23 rmoveto
          0 107 -101 callgsubr
          0 21 11 callsubr
          -128 0 0 vhcurveto
          -80 callgsubr
          endchar
        </CharString>
        <CharString name="W">
          1084 16 callgsubr
          997 108 160 -20 hstemhm
          1770 220 -148 148 hintmask 11111000
          1332 1170 rmoveto
          -473 -996 rlineto
          0 39 -1 0 vhcurveto
          -386 959 -26 -47 rlineto
          324 160 hlineto
          0 -760 0 0 vhcurveto
          -86 callgsubr
          0 280 -101 callgsubr
          -55 24 464 -1109 rlineto
          233 hlineto
          560 1144 rlineto
          238 -59 rmoveto
          160 vlineto
          0 -722 0 0 vhcurveto
          -86 callgsubr
          -933 -108 rmoveto
          0 153 -101 callgsubr
          0 -16 11 callsubr
          -137 0 0 vhcurveto
          -80 callgsubr
          570 25 rmoveto
          232 -577 -24 -51 -258 641 rlineto
          274 hlineto
          -27 -74 callgsubr
          -251 hlineto
          340 -1063 rmoveto
          19 callsubr
          371 755 -23 48 rlineto
          -293 282 rmoveto
          0 77 -101 callgsubr
          0 17 11 callsubr
          -94 0 0 vhcurveto
          -80 callgsubr
          379 193 rmoveto
          0 -110 -285 0 vhcurveto
          404 -885 rlineto
          233 hlineto
          454 1109 -55 -24 rlineto
          0 260 -83 callsubr
          0 -678 -101 callgsubr
          -160 302 vlineto
          -28 47 -384 -959 rlineto
          0 42 1 0 vhcurveto
          -237 828 rmoveto
          242 -557 -24 -51 -268 621 rlineto
          234 hlineto
          hintmask 11110100
          -27 -74 callgsubr
          -211 hlineto
          870 20 rmoveto
          -22 -20 rlineto
          261 -59 callgsubr
          -264 hlineto
          -455 -1101 rlineto
          19 callsubr
          -30 1085 rmoveto
          0 97 -101 callgsubr
          0 15 11 callsubr
          -112 0 0 vhcurveto
          -80 callgsubr
          endchar
        </CharString>
        <CharString name="X">
          293 -87 -21 1085 -20 22 -20 286 -20 hstemhm
          802 252 -180 180 -110 161 hintmask 11011000
          871 668 rmoveto
          -638 -532 113 24 rlineto
          0 -296 0 0 vhcurveto
          -86 callgsubr
          0 752 -101 callgsubr
          160 -339 vlineto
          36 -39 500 428 rlineto
          86 65 rmoveto
          580 495 -127 -24 rlineto
          0 319 -83 callsubr
          hintmask 11010010
          0 -752 -101 callgsubr
          -160 317 vlineto
          -16 39 -458 -401 rlineto
          -353 409 rmoveto
          -67 -47 rlineto
          344 160 hlineto
          0 -791 0 0 vhcurveto
          -86 callgsubr
          0 321 -101 callgsubr
          -127 50 1070 -1022 47 47 rlineto
          hintmask 11011000
          -338 -160 hlineto
          0 823 -83 callsubr
          0 -359 -101 callgsubr
          147 -50 rlineto
          -751 -5 rmoveto
          0 0 -213 0 vhcurveto
          0 -820 -89 callsubr
          hintmask 11010100
          0 780 -101 callgsubr
          175 vlineto
          1115 hmoveto
          0 0 -213 0 vhcurveto
          0 -891 -89 callsubr
          0 851 -101 callgsubr
          175 vlineto
          -680 524 rmoveto
          0 1 20 0 vhcurveto
          0 440 -429 0 vhcurveto
          0 -55 -101 callgsubr
          -433 422 444 373 rlineto
          290 hlineto
          -27 -74 callgsubr
          -310 hlineto
          48 23 rlineto
          0 -438 -371 0 vhcurveto
          -1123 348 rmoveto
          0 231 -101 callgsubr
          0 -39 11 callsubr
          -192 0 0 vhcurveto
          -80 callgsubr
          736 25 rmoveto
          0 38 -23 27 -27 vhcurveto
          96 -88 -28 -26 -187 177 rlineto
          143 hlineto
          hintmask 10110010
          -27 -28 rlineto
          207 40 vlineto
          0 0 -215 0 vhcurveto
          -32 hlineto
          -37 -34 6 0 hvcurveto
          78 -565 rmoveto
          27 -28 rlineto
          0 -209 -172 0 vhcurveto
          0 -59 -101 callgsubr
          hintmask 11011000
          422 757 rmoveto
          0 45 -101 callgsubr
          0 41 11 callsubr
          -86 0 0 vhcurveto
          -80 callgsubr
          endchar
        </CharString>
        <CharString name="Y">
          292 -108 -14 callsubr
          817 -20 58 70 160 -20 hstemhm
          590 495 -265 72 -32 225 72 42 166 72 439 72 hintmask 0101110101110000
          115 977 rmoveto
          0 203 -101 callgsubr
          0 -33 11 callsubr
          -170 0 0 vhcurveto
          -80 callgsubr
          657 hmoveto
          160 -59 callgsubr
          -203 hlineto
          287 -337 25 31 -249 293 rlineto
          405 -650 rmoveto
          539 648 -35 -23 rlineto
          300 -59 callgsubr
          -291 hlineto
          -527 -632 rlineto
          -163 42 184 vlineto
          -10 573 rmoveto
          0 60 -101 callgsubr
          0 31 11 callsubr
          -91 0 0 vhcurveto
          -80 callgsubr
          -539 -1047 rmoveto
          hintmask 1001111001110000
          -72 callgsubr
          hintmask 0101110011110000
          6 callgsubr
          -587 176 rmoveto
          hintmask 1001111001110000
          -68 callsubr
          -330 hlineto
          hintmask 0011111001110000
          -160 775 160 vlineto
          -3 -327 0 0 hvcurveto
          -47 callgsubr
          325 vlineto
          0 -26 -64 0 vhcurveto
          636 766 -73 -59 rlineto
          254 160 hlineto
          0 -752 0 0 vhcurveto
          -86 callgsubr
          339 hlineto
          4 85 -498 -606 rlineto
          0 39 -11 0 vhcurveto
          -484 579 -28 -47 rlineto
          hintmask 1001110101110000
          324 160 hlineto
          0 -770 0 0 vhcurveto
          -86 callgsubr
          0 270 -101 callgsubr
          -55 24 633 -742 rlineto
          hintmask 1001110011110000
          0 -38 78 0 vhcurveto
          endchar
        </CharString>
        <CharString name="Yacute">
          292 659 267 89 194 endchar
        </CharString>
        <CharString name="Z">
          150 -108 250 -142 142 -142 372 425 448 -378 378 -209 209 -139 139 hstemhm
          213 225 1184 72 hintmask 1001000110000000
          438 96 rmoveto
          1151 971 rlineto
          178 -1376 vlineto
          hintmask 1000100110000000
          -378 225 269 vlineto
          hintmask 0100001110000000
          -30 -30 rlineto
          914 hlineto
          28 35 -1164 -979 rlineto
          -162 1436 vlineto
          hintmask 0011000110000000
          372 -225 -260 vlineto
          hintmask 1000010110000000
          30 30 rlineto
          -1022 hlineto
          354 60 rmoveto
          0 -62 -101 callgsubr
          984 835 rlineto
          0 -10 -24 0 vhcurveto
          172 40 vlineto
          0 0 -174 0 vhcurveto
          -1465 -1081 rmoveto
          -80 callgsubr
          1488 -18 callgsubr
          424 0 vhcurveto
          -40 -402 hlineto
          0 10 16 0 vhcurveto
          -1194 1106 rmoveto
          633 hlineto
          -45 -38 rlineto
          -572 -38 callgsubr
          -262 -277 vlineto
          hintmask 1001000110000000
          -10 callsubr
          endchar
        </CharString>
        <CharString name="a">
          101 -138 108 -40 40 30 124 -124 150 537 45 0 63 45 125 -125 155 -41 callsubr
          -217 286 723 108 -108 210 -210 430 -148 40 180 40 hintmask 0101010110001010
          1184 -70 rmoveto
          -38 482 202 -40 -181 -90 callgsubr
          -512 70 rmoveto
          430 150 -270 hlineto
          hintmask 1001010110010110
          -47 callgsubr
          731 vlineto
          -50 -43 rlineto
          hintmask 1001011010001010
          -15 callgsubr
          hintmask 1010010110100110
          -105 callsubr
          hintmask 1001100101100110
          -831 158 rmoveto
          167 131 121 185 139 87 -69 -35 20 vhcurveto
          40 -70 -74 26 -102 hhcurveto
          -167 -108 -118 -136 -127 56 -98 150 -59 hvcurveto
          -169 29 -78 117 142 vvcurveto
          676 -524 rmoveto
          -59 -100 -137 -37 -141 hhcurveto
          -194 -187 63 118 -74 hvcurveto
          -89 109 175 -54 170 hhcurveto
          146 134 39 65 99 hvcurveto
          589 683 rmoveto
          202 -40 -181 -90 callgsubr
          -230 -515 40 494 hlineto
          -17 -17 rlineto
          endchar
        </CharString>
        <CharString name="aacute">
          101 504 0 97 194 endchar
        </CharString>
        <CharString name="acircumflex">
          101 -138 108 -40 40 30 124 -124 150 537 45 0 63 45 155 -30 120 38 70 340 -20 -41 callsubr
          -217 286 723 108 -108 210 -210 430 -148 40 180 40 hintmask 010101011110001010000000
          1184 -70 rmoveto
          -38 482 202 -40 -181 -90 callgsubr
          -512 70 rmoveto
          430 150 -270 hlineto
          hintmask 100101011110010110000000
          -47 callgsubr
          731 vlineto
          -50 -43 rlineto
          hintmask 100101011110001010000000
          -15 callgsubr
          hintmask 101001101110100110000000
          -105 callsubr
          hintmask 100110011101100110000000
          -831 158 rmoveto
          167 131 121 185 139 87 -69 -35 20 vhcurveto
          40 -70 -74 26 -102 hhcurveto
          -167 -108 -118 -136 -127 56 -98 150 -59 hvcurveto
          -169 29 -78 117 142 vvcurveto
          676 -524 rmoveto
          -59 -100 -137 -37 -141 hhcurveto
          -194 -187 63 118 -74 hvcurveto
          -89 109 175 -54 170 hhcurveto
          146 134 39 65 99 hvcurveto
          589 683 rmoveto
          202 -40 -181 -90 callgsubr
          -230 -515 40 494 hlineto
          -17 -17 rlineto
          -1000 436 -107 callsubr
        </CharString>
        <CharString name="acute">
          -826 51 callgsubr
          645 1533 7 callgsubr
          -105 callgsubr
        </CharString>
        <CharString name="adieresis">
          101 262 0 97 200 endchar
        </CharString>
        <CharString name="ae">
          874 -139 109 -87 -21 30 78 30 125 0 231 -90 callsubr
          195 219 -38 -73 callgsubr
          125 -125 155 -41 callsubr
          69 41 682 108 19 83 795 218 72 40 hintmask 1001011010111111
          1124 hmoveto
          210 965 -210 hlineto
          309 -371 -69 callsubr
          hintmask 1000100100111111
          51 -74 -88 23 -100 hhcurveto
          -114 -94 -52 -86 -45 hvcurveto
          328 -733 rmoveto
          -162 -139 31 42 -85 hvcurveto
          16 5 rlineto
          hintmask 0110101001111111
          -47 -253 38 223 vlineto
          -10 -17 rlineto
          66 vlineto
          -48 98 125 -32 186 hhcurveto
          154 55 callsubr
          hintmask 1000101001111111
          -106 -156 -193 -53 -186 hhcurveto
          2 264 rmoveto
          -305 -170 122 220 211 149 162 251 241 154 -152 -257 0 199 120 0 hvcurveto
          -1077 -125 hlineto
          0 1096 -101 callgsubr
          359 -228 210 -383 -304 -239 -194 -337 -37 vhcurveto
          -294 44 200 -200 401 hhcurveto
          205 200 72 107 126 hvcurveto
          -25 callgsubr
          15 17 rlineto
          hintmask 1001011001111111
          15 -46 76 -58 123 -35 rrcurveto
          -95 callgsubr
          -1335 64 rmoveto
          -105 callsubr
          -831 158 rmoveto
          167 131 121 185 139 87 -69 -35 20 vhcurveto
          hintmask 0110100100111111
          40 -70 -74 26 -102 hhcurveto
          -167 -108 -118 -136 -127 56 -98 150 -59 hvcurveto
          -169 29 -78 117 142 vvcurveto
          676 -524 rmoveto
          -59 -100 -137 -37 -141 hhcurveto
          -194 -187 63 118 -74 hvcurveto
          -89 109 175 -54 170 hhcurveto
          146 134 39 65 99 hvcurveto
          endchar
        </CharString>
        <CharString name="agrave">
          101 -138 108 -40 40 30 124 -124 150 537 45 0 63 45 155 -30 120 38 70 340 -20 -41 callsubr
          -217 286 723 108 -108 210 -210 430 -148 40 180 40 hintmask 010101011110001010000000
          1184 -70 rmoveto
          -38 482 202 -40 -181 -90 callgsubr
          -512 70 rmoveto
          430 150 -270 hlineto
          hintmask 100101011110010110000000
          -47 callgsubr
          731 vlineto
          -50 -43 rlineto
          hintmask 100101011110001010000000
          -15 callgsubr
          hintmask 101001101110100110000000
          -105 callsubr
          hintmask 100110011101100110000000
          -831 158 rmoveto
          167 131 121 185 139 87 -69 -35 20 vhcurveto
          40 -70 -74 26 -102 hhcurveto
          -167 -108 -118 -136 -127 56 -98 150 -59 hvcurveto
          -169 29 -78 117 142 vvcurveto
          676 -524 rmoveto
          -59 -100 -137 -37 -141 hhcurveto
          -194 -187 63 118 -74 hvcurveto
          -89 109 175 -54 170 hhcurveto
          146 134 39 65 99 hvcurveto
          589 683 rmoveto
          202 -40 -181 -90 callgsubr
          -230 -515 40 494 hlineto
          -17 -17 rlineto
          -681 506 -32 callsubr
          -77 callsubr
        </CharString>
        <CharString name="ampersand">
          285 53 callsubr
          458 -458 508 -478 130 310 282 -224 327 -277 174 -174 502 -263 458 -350 350 -233 -29 callgsubr
          160 287 -260 260 0 93 311 72 -72 310 -310 501 0 225 0 72 172 72 hintmask 000010100010001001010100
          1352 232 rmoveto
          -232 225 498 244 174 vlineto
          0 -660 -101 callgsubr
          -174 227 vlineto
          -36 90 rlineto
          -280 -246 -178 -321 -207 -131 79 119 vhcurveto
          hintmask 100000010000110000101100
          119 129 102 275 -1 vhcurveto
          174 vlineto
          -242 -152 72 127 88 93 111 232 hvcurveto
          hintmask 100001000010010001010100
          219 240 -78 -147 111 hvcurveto
          225 350 -225 -196 98 hlineto
          hintmask 100001000001001001010100
          133 -157 -178 98 -350 hhcurveto
          -376 -202 -180 -192 -158 153 -102 203 -49 hvcurveto
          67 vlineto
          hintmask 001001000100010001010100
          -198 -33 -185 -168 -147 vvcurveto
          -205 197 -143 404 263 215 84 168 141 vhcurveto
          311 565 rmoveto
          0 0 407 0 vhcurveto
          hintmask 100000100010010000101100
          -42 -395 hlineto
          0 24 26 0 vhcurveto
          -261 hlineto
          hintmask 100001000100000101010100
          -80 callgsubr
          -872 162 rmoveto
          hintmask 100001000001010001010100
          39 48 86 24 128 hhcurveto
          145 142 -31 -33 100 hvcurveto
          hintmask 010000001000100100101100
          58 -88 -136 44 -163 hhcurveto
          -143 -119 -46 -55 hvcurveto
          1109 -1045 rmoveto
          0 24 26 0 vhcurveto
          -261 hlineto
          -80 callgsubr
          279 -18 callgsubr
          524 0 vhcurveto
          -25 -26 rlineto
          269 -18 callgsubr
          231 0 vhcurveto
          -42 -219 hlineto
          hintmask 001001000100010000101100
          0 23 26 0 vhcurveto
          -267 hlineto
          -401 -406 rmoveto
          -84 -142 -154 -38 -197 hhcurveto
          -210 -168 44 104 -151 hvcurveto
          hintmask 100001000100010001010100
          -127 113 190 -59 224 hhcurveto
          183 163 32 82 149 hvcurveto
          15 414 rmoveto
          hintmask 001001000100010001010100
          4 4 14 26 8 vvcurveto
          -70 -38 hlineto
          hintmask 000100100010010000101100
          -360 88 rmoveto
          -222 -109 -81 -47 hvcurveto
          hintmask 100001000100010010010100
          43 51 126 47 154 hhcurveto
          114 -18 callgsubr
          231 0 vhcurveto
          -42 -219 hlineto
          hintmask 000100100010010000101100
          0 24 26 0 vhcurveto
          endchar
        </CharString>
        <CharString name="aring">
          101 -138 262 -232 258 -180 154 -124 124 563 278 -233 263 -200 170 -125 155 -155 283 -38 228 -120 120 193 120 -41 callsubr
          69 41 64 176 257 178 7 105 -105 210 -210 430 -365 40 177 40 180 40 hintmask 010010000101111110001100
          1184 -70 rmoveto
          -38 482 202 -40 -181 -90 callgsubr
          hintmask 000110000101111100100100
          -512 70 rmoveto
          430 hlineto
          hintmask 010010000101111100100100
          150 -270 vlineto
          hintmask 100000100101111101001100
          -47 callgsubr
          731 vlineto
          -50 -43 rlineto
          hintmask 001000100101111100100100
          -15 callgsubr
          -255 2 -225 -111 -187 hhcurveto
          -216 -166 143 220 hvcurveto
          hintmask 001000010101111110001100
          214 167 139 218 220 186 -160 -190 1 vhcurveto
          108 172 rmoveto
          257 -48 -280 76 -185 hhcurveto
          -393 -211 -269 -247 -275 198 -234 384 241 248 129 225 46 hvcurveto
          -831 158 rmoveto
          -142 78 -117 169 -29 vhcurveto
          -150 59 -56 98 127 vvcurveto
          hintmask 100001000101111110001100
          136 108 118 167 102 74 -26 -40 70 vhcurveto
          35 -20 -87 69 -139 hhcurveto
          -185 -131 -121 -167 hvcurveto
          676 -478 rmoveto
          -65 -99 -134 -39 -146 hhcurveto
          -170 -175 54 89 -109 hvcurveto
          -118 74 187 -63 194 hhcurveto
          141 137 37 59 100 hvcurveto
          hintmask 100010000011111110001100
          589 729 rmoveto
          202 -40 -181 -90 callgsubr
          -230 -515 40 494 hlineto
          -17 -17 rlineto
          -615 939 -36 callgsubr
          hintmask 100010000101111100011100
          -21 callsubr
          hintmask 100000001011111110001100
          -12 callsubr
          hvcurveto
          hintmask 100010000101111110001100
          33 callsubr
          vhcurveto
          endchar
        </CharString>
        <CharString name="asciicircum">
          -160 550 -21 716 -20 hstem
          1028 637 rmoveto
          215 hlineto
          -408 608 rlineto
          -245 hlineto
          -430 -608 rlineto
          225 hlineto
          352 487 rlineto
          -39 hlineto
          56 -172 rmoveto
          -25 36 -311 -428 23 7 rlineto
          -212 hlineto
          -26 -38 rlineto
          243 hlineto
          560 665 rmoveto
          -48 hlineto
          424 -637 20 10 rlineto
          -272 hlineto
          24 -38 rlineto
          296 hlineto
          endchar
        </CharString>
        <CharString name="asciitilde">
          -274 395 148 -134 -21 108 47 -47 160 -43 160 hstemhm
          hintmask 01101000
          498 773 rmoveto
          -157 -170 -88 -182 -47 hvcurveto
          0 172 -101 callgsubr
          67 33 75 43 81 hhcurveto
          59 34 -10 -46 102 hvcurveto
          -51 121 54 -10 69 hhcurveto
          119 132 88 182 39 hvcurveto
          -172 hlineto
          hintmask 01010000
          -70 -18 -43 -40 -45 hhcurveto
          -73 -43 16 32 -80 hvcurveto
          hintmask 10001000
          56 -119 -55 13 -68 hhcurveto
          432 -347 rmoveto
          -67 -58 8 65 -162 hvcurveto
          19 -49 -58 25 -44 hhcurveto
          -77 -61 -28 -86 -12 hvcurveto
          27 4 rlineto
          -202 hlineto
          -6 -38 rlineto
          218 hlineto
          94 10 34 16 67 hhcurveto
          27 35 -12 -26 69 hvcurveto
          hintmask 01101000
          -64 150 76 -15 83 hhcurveto
          175 153 117 213 59 hvcurveto
          -42 hlineto
          -66 callsubr
        </CharString>
        <CharString name="asterisk">
          -455 472 -21 794 -20 hstem
          484 165 71 40 vstem
          511 829 rmoveto
          234 -300 135 100 -237 259 -5 -86 337 94 -53 154 -311 -106 32 -8 12 309 rlineto
          -178 hlineto
          14 -308 33 7 -311 106 -53 -154 337 -94 -7 86 -233 -273 159 -100 206 314 rlineto
          255 -52 rmoveto
          157 -179 -196 -147 -23 32 182 135 -10 -23 -159 187 249 70 -9 -13 -68 198 37 12 78 -228 -240 -69 rlineto
          -119 282 rmoveto
          8 160 rlineto
          -40 hlineto
          -8 -174 rlineto
          -109 -400 rmoveto
          -67 -122 -32 24 74 132 rlineto
          -293 444 rmoveto
          156 -53 -3 42 -140 47 rlineto
          endchar
        </CharString>
        <CharString name="at">
          883 -628 -73 callgsubr
          382 -222 252 -30 108 -40 40 0 230 -200 119 0 443 -362 362 -38 107 -20 callgsubr
          0 259 -38 3 callsubr
          216 -216 288 40 460 -216 216 -216 288 560 85 -85 216 70 40 299 216 72 40 hintmask 101010010001011010001111
          2443 542 rmoveto
          -376 -275 -236 -435 vhcurveto
          -156 -38 155 hlineto
          472 279 260 391 309 -217 246 -267 87 hvcurveto
          241 -117 203 -254 -272 vvcurveto
          -470 -746 rmoveto
          -102 -186 -185 -54 -288 hhcurveto
          -569 -419 293 461 393 371 333 567 497 394 -244 -347 -302 -169 -108 -248 hvcurveto
          -33 hlineto
          41 -34 rlineto
          683 -216 vlineto
          hintmask 010010101010010101010111
          -768 202 vlineto
          446 193 255 287 398 -427 340 -674 -764 -396 -432 -453 -562 507 -353 707 281 265 54 139 227 hvcurveto
          -567 717 rmoveto
          -185 -167 -75 -168 -186 -111 105 152 134 103 110 192 168 168 -82 -159 1 vhcurveto
          85 137 rmoveto
          163 -30 -186 101 -207 hhcurveto
          -295 -215 -169 -241 hvcurveto
          hintmask 101001000101011000110111
          -224 172 -187 335 192 197 109 179 37 vhcurveto
          -645 122 rmoveto
          hintmask 101010101001011010010111
          106 79 76 146 117 84 -45 -55 36 vhcurveto
          hintmask 101010100101011010010111
          39 -62 -87 23 -88 hhcurveto
          -123 -62 -65 -78 hvcurveto
          hintmask 100100101001010100110111
          -85 47 -57 97 -39 vhcurveto
          -122 7 -62 82 91 vvcurveto
          518 -440 rmoveto
          -46 -71 -114 -32 -112 hhcurveto
          -170 -163 60 97 -70 hvcurveto
          -70 87 180 -49 135 hhcurveto
          116 111 32 52 71 hvcurveto
          368 739 rmoveto
          -40 -540 hlineto
          6 28 4 2 6 hvcurveto
          -1458 205 rmoveto
          365 351 291 515 231 239 -58 -113 156 vhcurveto
          hintmask 101010010010100110010111
          94 -191 -222 39 -213 hhcurveto
          -515 -311 -297 -321 -232 107 -189 177 -123 hvcurveto
          -220 100 -104 216 228 vvcurveto
          1731 -835 rmoveto
          -115 -199 -267 -72 -344 hhcurveto
          -375 -393 98 200 -178 hvcurveto
          -177 259 373 -83 317 hhcurveto
          315 261 83 101 190 hvcurveto
          endchar
        </CharString>
        <CharString name="atilde">
          101 194 0 97 196 endchar
        </CharString>
        <CharString name="b">
          66 -138 108 -78 78 30 124 -124 150 562 -73 callgsubr
          155 260 160 hstemhm
          120 -17 callgsubr
          73 40 659 217 72 41 hintmask 1001101001011100
          180 1127 rmoveto
          -74 callsubr
          210 108 rmoveto
          -50 50 rlineto
          -1178 vlineto
          50 43 rlineto
          hintmask 1001101010011100
          -220 -150 385 1395 hlineto
          hintmask 0101101100011100
          -435 -160 270 hlineto
          278 -255 rmoveto
          -40 -20 rlineto
          384 40 vlineto
          -6 -1392 rmoveto
          -60 -432 38 397 52 vlineto
          -50 97 131 -32 112 hhcurveto
          375 274 218 367 184 -89 129 -94 85 hvcurveto
          143 -74 81 -163 -161 vvcurveto
          hintmask 1010011100011100
          -382 -277 -241 -414 -97 -143 30 47 -81 vhcurveto
          -90 526 -13 callsubr
          -209 -208 96 245 vhcurveto
          hintmask 1001011000111100
          21 callsubr
          352 225 212 303 1 callsubr
          -157 rmoveto
          159 123 126 197 105 88 -30 -66 50 vhcurveto
          hintmask 1001101100011100
          43 -89 -67 15 -87 hhcurveto
          -173 -105 -112 -135 -106 60 -93 135 -62 hvcurveto
          -147 19 -90 114 128 vvcurveto
          endchar
        </CharString>
        <CharString name="backslash">
          -561 -488 -21 1783 -20 71 -20 hstem
          956 -401 rmoveto
          -735 1726 rlineto
          -221 hlineto
          735 -1726 rlineto
          -411 1675 rmoveto
          752 -1762 20 17 rlineto
          -267 hlineto
          17 -38 rlineto
          283 hlineto
          -760 1783 rlineto
          endchar
        </CharString>
        <CharString name="bar">
          -958 -508 108 1674 -20 71 -20 hstem
          220 200 72 40 vstem
          420 1325 rmoveto
          -200 -1725 200 hlineto
          112 1674 rmoveto
          -1782 -252 15 callgsubr
          1761 40 vlineto
          endchar
        </CharString>
        <CharString name="braceleft">
          -706 -554 -82 callsubr
          1343 -82 callsubr
          -51 -20 hstemhm
          160 381 -190 190 72 40 0 191 0 40 hintmask 1001001010000000
          315 432 rmoveto
          143 35 83 89 272 vvcurveto
          268 50 69 181 vhcurveto
          160 vlineto
          -310 -111 -124 -364 hvcurveto
          hintmask 1010110010000000
          -212 -56 -61 -135 -44 vhcurveto
          -161 vlineto
          hintmask 0110101010000000
          137 -45 54 -67 -205 vvcurveto
          -364 111 -124 310 vhcurveto
          160 vlineto
          -181 -50 69 268 272 -83 89 -143 35 hvcurveto
          529 -979 rmoveto
          195 vlineto
          hintmask 1010110101000000
          40 -217 hlineto
          -259 -190 75 54 hvcurveto
          -46 54 171 -45 194 hhcurveto
          -321 959 rmoveto
          79 -54 41 -97 -241 vvcurveto
          -184 24 -50 14 -23 vhcurveto
          -46 -32 55 202 241 -60 119 -78 28 hvcurveto
          72 26 66 108 255 vvcurveto
          214 39 53 119 vhcurveto
          89 hlineto
          hintmask 1010110010000000
          -16 -22 rlineto
          201 38 -217 -110 vlineto
          -89 -30 -31 -199 -245 -54 -115 -66 -33 hvcurveto
          endchar
        </CharString>
        <CharString name="braceright">
          -706 -554 108 1611 160 -51 -20 hstemhm
          108 421 -190 190 83 40 0 140 -72 110 hintmask 11001010
          565 447 rmoveto
          -143 -35 -83 -89 -272 vvcurveto
          hintmask 11010101
          -268 -50 -69 -181 vhcurveto
          -160 vlineto
          310 111 124 364 205 54 67 137 45 hvcurveto
          161 vlineto
          -135 44 -56 61 212 vvcurveto
          364 -111 124 -310 vhcurveto
          -160 vlineto
          hintmask 11001101
          181 50 -69 -268 -272 83 -89 143 -35 hvcurveto
          -392 -948 rmoveto
          284 155 130 428 190 48 63 139 hvcurveto
          hintmask 11010010
          -7 -22 rlineto
          196 vlineto
          hintmask 11010101
          38 -212 -28 hlineto
          hintmask 10110010
          -116 -34 -30 -185 -482 -211 -114 -268 hvcurveto
          304 1828 rmoveto
          91 73 -112 -325 -151 12 -34 28 -26 hvcurveto
          -53 -27 44 167 255 -46 126 -78 56 hvcurveto
          endchar
        </CharString>
        <CharString name="bracketleft">
          -832 -509 -73 callgsubr
          125 1406 70 0 125 -51 -20 hstemhm
          160 200 -200 506 -234 40 266 40 hintmask 1010110110000000
          778 1092 rmoveto
          182 -40 -160 vlineto
          10 16 rlineto
          -316 -1346 40 1328 hlineto
          -12 -20 rlineto
          -300 -1493 rmoveto
          hintmask 0110101010000000
          506 125 -406 hlineto
          hintmask 1010110110000000
          100 -55 rlineto
          1625 vlineto
          -100 -94 rlineto
          hintmask 1001001010000000
          406 125 -506 hlineto
          578 -1812 rmoveto
          160 40 -182 -558 38 528 vlineto
          endchar
        </CharString>
        <CharString name="bracketright">
          -832 -509 -73 callgsubr
          125 1368 -73 callgsubr
          125 -51 -20 hstemhm
          100 506 -200 200 72 40 hintmask 10010101
          606 1325 rmoveto
          -506 -125 406 hlineto
          hintmask 01101011
          -100 94 rlineto
          -1625 vlineto
          100 55 rlineto
          hintmask 01010101
          -406 -125 506 hlineto
          72 -86 rmoveto
          hintmask 10101101
          1761 40 -1783 -558 38 528 vlineto
          -528 1563 rmoveto
          38 196 -38 vlineto
          endchar
        </CharString>
        <CharString name="brokenbar">
          -958 -508 108 695 265 -38 108 644 -20 71 -20 hstemhm
          220 200 72 40 hintmask 10111110
          420 1325 14 callsubr
          vlineto
          hintmask 11011110
          15 callgsubr
          731 vlineto
          -72 -979 14 callsubr
          15 callgsubr
          731 vlineto
          endchar
        </CharString>
        <CharString name="bullet">
          -886 348 469 -361 361 hstemhm
          155 417 72 40 hintmask 10110000
          644 633 rmoveto
          -141 -120 -106 -161 -70 -81 29 34 -47 vhcurveto
          -64 39 84 -37 91 hhcurveto
          169 136 119 154 69 -30 61 -70 36 hvcurveto
          38 -46 22 -47 -61 vvcurveto
          hintmask 01110000
          -281 -177 rmoveto
          132 77 81 97 99 -86 84 -121 -116 -94 -78 -110 -98 86 -75 122 hvcurveto
          endchar
        </CharString>
        <CharString name="c">
          -99 -139 109 155 459 -38 108 78 -73 callgsubr
          124 -124 155 -41 callsubr
          72 40 691 215 72 40 hintmask 1100101111000000
          1394 81 rmoveto
          -146 -144 -213 -74 -259 hhcurveto
          -217 -222 66 119 -81 hvcurveto
          -92 127 196 -55 199 hhcurveto
          241 226 81 127 118 hvcurveto
          -107 218 -21 callgsubr
          hintmask 1010101111000000
          0 callsubr
          hintmask 1010011111000000
          -49 callgsubr
          hintmask 1101001111000000
          9 callsubr
          vlineto
          hintmask 1011001111000000
          -376 vlineto
          -1058 -78 rmoveto
          178 -62 callgsubr
          -141 -140 89 -75 153 -53 hvcurveto
          -176 17 -106 101 150 vvcurveto
          endchar
        </CharString>
        <CharString name="ccedilla">
          -99 -587 20 callsubr
          84 72 -72 155 459 380 -310 310 -194 225 -155 124 -41 callsubr
          480 11 callgsubr
          -14 215 72 40 hintmask 1011010001110100
          1194 546 rmoveto
          9 callsubr
          -376 vlineto
          -1058 -87 rmoveto
          hintmask 0111000101110100
          187 -62 callgsubr
          -152 -129 89 -86 153 -53 hvcurveto
          -176 17 -106 112 141 vvcurveto
          192 -666 -79 callgsubr
          54 203 rlineto
          -152 hlineto
          304 -128 rmoveto
          96 -44 46 -67 -88 18 callgsubr
          hintmask 1010100011110100
          -5 30 63 -4 29 31 callgsubr
          84 -38 69 -69 48 hvcurveto
          -18 -8 rlineto
          -457 hmoveto
          -122 19 -102 46 -85 62 55 -80 103 -59 140 -25 rrcurveto
          485 19 rmoveto
          142 34 119 64 92 93 -29 26 rcurveline
          -89 -96 -148 -68 -161 -29 rrcurveto
          291 411 -21 callgsubr
          hintmask 1011001001101100
          0 callsubr
          hintmask 1011000101110100
          -49 callgsubr
          hintmask 1011010001110100
          9 callsubr
          -376 vlineto
          -1058 -78 rmoveto
          hintmask 1011000101110100
          178 -62 callgsubr
          -141 -140 89 -75 153 -53 hvcurveto
          -176 17 -106 101 150 vvcurveto
          endchar
        </CharString>
        <CharString name="cedilla">
          -765 -607 20 callsubr
          hstemhm
          468 11 callgsubr
          hintmask 01111000
          252 -227 -79 callgsubr
          rlineto
          hintmask 10111000
          54 203 rlineto
          -152 hlineto
          -110 -617 rmoveto
          -7 30 55 -5 37 31 callgsubr
          84 -41 49 -75 23 hvcurveto
          40 -24 36 -51 -81 vvcurveto
          -161 -152 -103 -278 -44 -55 5 7 -27 vhcurveto
          endchar
        </CharString>
        <CharString name="cent">
          -99 -216 108 422 470 -38 108 79 107 -70 -20 90 124 -22 53 -53 293 -41 callsubr
          72 40 234 154 0 303 -231 40 478 40 hintmask 1011000111101100
          944 91 rmoveto
          -307 -206 38 176 vlineto
          -10 -17 rlineto
          290 vlineto
          185 25 172 74 95 102 29 -26 rcurveline
          -112 -114 -155 -70 -185 -25 rrcurveto
          -295 -4 rmoveto
          -190 25 -129 63 -61 90 105 -76 123 -45 152 -19 rrcurveto
          546 651 rmoveto
          hintmask 1101000111101100
          38 246 vlineto
          -8 -13 rlineto
          351 40 vlineto
          hintmask 1010100111101100
          -376 vlineto
          -1058 -87 rmoveto
          187 141 124 198 116 116 -41 -68 47 vhcurveto
          hintmask 1101000111101100
          43 -79 -81 29 -115 hhcurveto
          -186 -117 -124 -152 -129 89 -86 153 -53 hvcurveto
          -173 13 -109 116 141 vvcurveto
          428 -474 rmoveto
          -154 -293 154 hlineto
          1543 vmoveto
          -154 -293 154 hlineto
          112 90 rmoveto
          0 -40 13 0 vhcurveto
          139 40 vlineto
          -185 -1225 rmoveto
          248 204 80 154 144 hvcurveto
          -106 121 rlineto
          -136 -124 -155 -64 -205 hhcurveto
          -267 -166 143 202 222 177 159 233 hvcurveto
          hintmask 1010110011010100
          181 138 -93 -93 74 hvcurveto
          215 310 -215 -157 hlineto
          112 -53 rlineto
          hintmask 1101001011101100
          149 -110 -157 92 -225 hhcurveto
          -377 -263 -249 -282 -295 238 -210 406 hvcurveto
          endchar
        </CharString>
        <CharString name="circumflex">
          -398 51 callgsubr
          200 1123 -107 callsubr
        </CharString>
        <CharString name="circumflex.cap">
          -521 1085 108 340 -20 hstem
          534 1486 -94 callgsubr
          3 callgsubr
          -19 callsubr
        </CharString>
        <CharString name="colon">
          -978 0 600 46 46 endchar
        </CharString>
        <CharString name="comma">
          -974 -440 10 callsubr
          211 -57 callsubr
          hintmask 10110100
          556 37 -98 callgsubr
        </CharString>
        <CharString name="commaaccent">
          -1099 -685 481 hstemhm
          144 -1 callgsubr
          vstemhm
          188 -685 rmoveto
          186 13 127 119 236 vvcurveto
          62 -40 -62 vlineto
          -205 -103 -110 -170 -14 vhcurveto
          201 442 rmoveto
          -245 -167 103 hlineto
          -18 23 rlineto
          -90 -29 -39 -60 vhcurveto
          hintmask 11100000
          -101 vlineto
          157 -4 92 86 179 vvcurveto
          endchar
        </CharString>
        <CharString name="copyright">
          -107 -138 -73 callgsubr
          112 0 120 100 352 93 130 0 111 8 callgsubr
          129 161 128 516 190 0 132 72 40 hintmask 0101011101100000
          1371 476 -37 callgsubr
          -132 hmoveto
          -250 -183 -144 -311 -308 -193 187 207 217 159 184 328 316 192 -166 -235 vhcurveto
          -490 -174 rmoveto
          -117 -99 64 107 107 81 74 126 83 93 -44 -41 15 hvcurveto
          hintmask 1011101110100000
          118 163 -118 -81 hlineto
          38 -1 rlineto
          61 -48 -91 36 -93 hhcurveto
          -227 -105 -136 -138 -144 133 -127 207 143 97 45 85 72 hvcurveto
          -61 73 rlineto
          -73 -61 -68 -30 -118 hhcurveto
          734 174 rmoveto
          -67 callsubr
        </CharString>
        <CharString name="currency">
          25 -116 -21 168 268 -90 callsubr
          428 268 -90 callsubr
          207 -20 hstemhm
          249 205 72 40 546 205 -205 314 hintmask 1010111110000000
          788 139 rmoveto
          326 203 196 234 256 -216 170 -328 -321 -203 -199 -227 -222 182 -208 357 hvcurveto
          -2 160 rmoveto
          -200 -132 109 161 153 142 113 177 184 155 -98 -168 -151 -110 -119 -216 hvcurveto
          -260 270 rmoveto
          -86 42 -74 145 -36 vhcurveto
          -110 53 -37 73 64 vvcurveto
          hintmask 1101011101000000
          88 77 76 130 115 78 -29 -41 54 vhcurveto
          69 -36 -94 39 -114 hhcurveto
          -150 -100 -80 -116 hvcurveto
          1026 -588 rmoveto
          3 29 -124 -120 28 -27 136 131 -292 279 11 -16 rlineto
          71 87 41 108 117 vvcurveto
          110 -26 94 -72 92 vhcurveto
          -2 -23 166 153 -28 28 -177 -165 rlineto
          61 -70 39 -106 -113 vvcurveto
          -130 -52 -109 -72 -73 vhcurveto
          -190 -134 rmoveto
          -30 -66 -112 -24 -107 hhcurveto
          -81 -79 11 25 -82 hvcurveto
          -198 -199 28 -28 195 195 -34 -4 rlineto
          -23 70 97 -15 84 hhcurveto
          119 123 26 36 72 hvcurveto
          -49 795 rmoveto
          106 -72 279 280 -90 86 rlineto
          -789 -965 rmoveto
          -130 46 -269 -269 88 -89 rlineto
          888 391 rmoveto
          -93 -83 305 -305 90 86 rlineto
          -1187 1189 rmoveto
          -91 -87 268 -267 134 42 rlineto
          -26 125 rmoveto
          7 3 30 8 8 1 -195 194 rcurveline
          -28 -28 rlineto
          endchar
        </CharString>
        <CharString name="d">
          1 -138 108 -40 40 30 124 -124 150 670 155 260 160 -41 callsubr
          -217 287 502 435 -215 108 -108 -42 callgsubr
          hintmask 1001111000011000
          1509 hmoveto
          150 -220 vlineto
          hintmask 1001111010001000
          -47 callgsubr
          1288 -435 -160 270 vlineto
          hintmask 1001111001001000
          -50 59 rlineto
          -1294 vlineto
          hintmask 1001111000011000
          490 vmoveto
          hintmask 0110111001001000
          -255 2 -225 -111 -187 hhcurveto
          -235 -147 138 215 204 172 139 213 220 186 -140 -190 1 hvcurveto
          108 152 rmoveto
          257 -48 -280 76 -185 hhcurveto
          -393 -211 -259 -247 -324 255 -175 327 54 callsubr
          -268 803 rmoveto
          -74 callsubr
          220 -1197 rmoveto
          -38 437 202 -40 -181 -90 callgsubr
          hintmask 1001110100101000
          -1189 547 rmoveto
          151 125 120 190 134 100 -45 -60 33 vhcurveto
          46 -72 -91 21 -104 hhcurveto
          -167 -107 -104 -133 -125 73 -95 140 -58 hvcurveto
          -162 20 -92 118 144 vvcurveto
          1009 867 rmoveto
          40 -1134 -40 hlineto
          -334 -252 rmoveto
          -59 -100 -137 -37 -141 hhcurveto
          -214 -157 63 118 -84 hvcurveto
          -89 109 175 -54 170 hhcurveto
          146 134 39 65 99 hvcurveto
          endchar
        </CharString>
        <CharString name="degree">
          -526 510 264 -156 156 -156 436 -38 264 -156 156 hstemhm
          155 190 70 40 287 190 72 40 hintmask 1001011110000000
          1004 955 rmoveto
          -251 -179 -156 -262 -106 -138 43 55 -76 vhcurveto
          -82 50 147 -54 123 hhcurveto
          285 196 167 278 126 -66 117 -101 32 hvcurveto
          72 -65 55 -104 -106 vvcurveto
          hintmask 0100111110000000
          -461 -337 rmoveto
          237 152 139 198 162 -125 163 -264 -238 -150 -150 -183 -195 160 -134 228 hvcurveto
          -2 156 rmoveto
          -98 -98 60 113 97 76 80 122 99 100 -53 -121 -107 -103 -69 -98 hvcurveto
          -126 174 rmoveto
          -57 38 -36 78 -11 vhcurveto
          -44 11 -32 44 39 vvcurveto
          hintmask 1001011110000000
          46 37 32 55 51 38 -11 -21 26 vhcurveto
          hintmask 0010111110000000
          39 -7 -45 31 -67 hhcurveto
          -76 -52 -49 -57 hvcurveto
          endchar
        </CharString>
        <CharString name="dieresis">
          -563 1085 308 hstemhm
          120 -1 callgsubr
          193 -1 callgsubr
          vstemhm
          365 1393 -12 callgsubr
          468 270 rmoveto
          -245 hlineto
          hintmask 11111000
          -200 245 vlineto
          -104 callsubr
          endchar
        </CharString>
        <CharString name="dieresis.cap">
          -463 1352 308 hstemhm
          140 -1 callgsubr
          253 -1 callgsubr
          vstemhm
          385 1660 -12 callgsubr
          528 270 rmoveto
          -245 hlineto
          hintmask 11111000
          -200 245 vlineto
          -104 callsubr
          endchar
        </CharString>
        <CharString name="divide">
          -448 -2 279 -189 189 -189 361 -38 -14 callgsubr
          319 -34 294 -189 189 hstemhm
          460 219 -219 323 269 40 hintmask 0010101010100000
          160 674 rmoveto
          -155 820 155 vlineto
          -734 -225 rmoveto
          hintmask 1001001010100000
          -38 846 242 -40 -220 vlineto
          hintmask 0010010110100000
          10 16 rlineto
          -312 535 -44 callsubr
          hintmask 0101000110100000
          -181 -75 rmoveto
          13 callsubr
          -821 vmoveto
          13 callsubr
          181 90 -44 callsubr
          endchar
        </CharString>
        <CharString name="dollar">
          137 -348 248 -140 369 -266 266 -237 237 17 callgsubr
          -233 268 -160 125 -125 325 hstemhm
          180 225 -225 270 368 154 72 40 250 39 callgsubr
          hintmask 100010000100111100100000
          450 951 rmoveto
          78 109 91 206 vhcurveto
          hintmask 100010010001011100100000
          253 220 -102 -133 97 hvcurveto
          225 360 -225 40 callsubr
          hintmask 100010001001011010100000
          133 -153 -192 127 -340 hhcurveto
          -374 -194 -167 -175 -189 179 -159 447 -44 hvcurveto
          378 -37 150 46 callgsubr
          hintmask 100001100001011100100000
          -225 -214 73 158 -181 29 callsubr
          hintmask 100010100000111010100000
          -150 214 217 -80 279 43 callsubr
          -160 128 -506 58 hvcurveto
          -381 43 -98 81 98 vvcurveto
          634 -1071 rmoveto
          hintmask 001000100001011100100000
          -5 -17 rlineto
          350 13 278 165 279 vvcurveto
          86 -44 91 -63 45 vhcurveto
          54 -71 13 -66 -85 vvcurveto
          hintmask 100010100001011100100000
          -251 -256 -169 -367 vhcurveto
          -227 -90 callgsubr
          -176 -38 206 hlineto
          -306 274 rmoveto
          -108 22 -98 34 -95 47 rrcurveto
          -99 -237 vlineto
          hintmask 000100100001011100100000
          -38 279 vlineto
          hintmask 100001100001011001100000
          108 vlineto
          -27 -22 81 -40 94 -33 111 -20 rlinecurve
          617 892 rmoveto
          -28 callgsubr
          -16 rlineto
          395 42 -417 vlineto
          -896 -298 rmoveto
          -333 36 -142 71 -94 112 18 -106 171 -110 380 -43 rrcurveto
          611 vmoveto
          -142 -103 -38 -55 hvcurveto
          hintmask 100010001001011100100000
          28 39 76 27 130 hhcurveto
          hintmask 010000000011011100100000
          194 433 rmoveto
          -154 -1685 154 hlineto
          72 1518 rmoveto
          40 -13 rlineto
          129 -40 vlineto
          -1203 vmoveto
          40 6 rlineto
          209 vlineto
          -14 -11 89 -16 55 -21 45 -25 rlinecurve
          -18 45 -67 37 -130 24 rrcurveto
          337 vmoveto
          40 -8 rlineto
          211 vlineto
          -8 -14 27 -5 41 -9 29 -13 rlinecurve
          -33 27 -59 32 -37 7 rrcurveto
          endchar
        </CharString>
        <CharString name="dotlessi">
          -66 callgsubr
          -39 callgsubr
          hintmask 0110000110000000
          185 687 -57 callgsubr
          hintmask 1010100010000000
          -48 callsubr
          -455 vlineto
          hintmask 1001100010000000
          52 callgsubr
          hintmask 1010010010000000
          -81 callgsubr
          hintmask 0110100010000000
          15 callsubr
          hintmask 0110000110000000
          -34 callsubr
          hintmask 1010001010000000
          -70 callsubr
          endchar
        </CharString>
        <CharString name="dotlessj">
          -5 callsubr
          0 171 hstemhm
          163 445 70 40 hintmask 10101100
          42 callsubr
          hintmask 10011100
          385 241 4 callsubr
          hintmask 01011100
          -99 callgsubr
          -570 -333 -63 callsubr
          hintmask 10101100
          -84 callsubr
          endchar
        </CharString>
        <CharString name="e">
          -61 callgsubr
          0 155 -41 callsubr
          -92 92 795 218 72 40 hintmask 1010010110110000
          431 594 -69 callsubr
          hintmask 1011001001110000
          -102 callgsubr
          hintmask 1010010101110000
          32 callsubr
          hintmask 1010100101110000
          -16 callgsubr
          hintmask 0100100110110000
          -85 callsubr
          hintmask 1010100110110000
          -95 callgsubr
          endchar
        </CharString>
        <CharString name="eacute">
          -61 callgsubr
          155 90 38 70 340 -20 -41 callsubr
          -92 92 795 218 72 40 hintmask 1010010111101100
          431 594 -69 callsubr
          hintmask 1011001111011100
          -102 callgsubr
          hintmask 1010010111011100
          32 callsubr
          hintmask 1010100111011100
          -16 callgsubr
          hintmask 0100100111101100
          -85 callsubr
          hintmask 1010100111101100
          -95 callgsubr
          -477 1107 7 callgsubr
          -105 callgsubr
        </CharString>
        <CharString name="ecircumflex">
          -128 213 0 101 195 endchar
        </CharString>
        <CharString name="edieresis">
          -61 callgsubr
          155 90 38 70 0 200 -41 callsubr
          -92 92 -40 -1 callgsubr
          193 245 40 218 -186 40 218 40 hintmask 101001011010011101000000
          431 594 -69 callsubr
          hintmask 101100111001011101000000
          -102 callgsubr
          hintmask 101001011001011101000000
          32 callsubr
          hintmask 101010011001011101000000
          -16 callgsubr
          hintmask 010010011010011101000000
          -85 callsubr
          hintmask 101010010100111101000000
          -95 callgsubr
          -920 967 -81 callsubr
          hintmask 101001011010011101000000
          -104 callsubr
          hintmask 101001010110011101000000
          468 9 callgsubr
          hintmask 101001011010011011000000
          -104 callsubr
          endchar
        </CharString>
        <CharString name="egrave">
          -128 202 0 101 193 endchar
        </CharString>
        <CharString name="eight">
          -39 -29 callsubr
          0 450 -366 366 26 75 0 383 -37 93 -20 callgsubr
          hstemhm
          130 225 -195 195 73 40 -11 40 708 234 72 40 hintmask 0101100110011100
          130 343 rmoveto
          -206 203 -167 486 433 187 151 188 191 -157 145 -427 59 vhcurveto
          -371 51 -99 85 102 vvcurveto
          78 103 100 291 250 176 -87 -113 -135 -190 -104 -253 vhcurveto
          0 262 -75 0 vhcurveto
          192 1 203 160 159 vvcurveto
          194 -214 160 -412 vhcurveto
          hintmask 1010010101011100
          -451 -182 -155 -192 -185 172 -148 385 -53 hvcurveto
          409 -56 99 -78 -108 vvcurveto
          -86 -98 -89 -297 -297 -178 101 124 142 210 93 209 -10 vhcurveto
          -180 89 rlineto
          hintmask 1010010110011100
          -281 -30 -183 -118 -178 vvcurveto
          1421 -34 rmoveto
          -297 -294 -150 -446 -239 -216 52 120 -128 vhcurveto
          -98 137 264 -36 182 hhcurveto
          448 252 160 249 145 -97 112 -125 59 hvcurveto
          135 68 64 120 115 vvcurveto
          123 -59 89 -112 58 vhcurveto
          162 -42 49 -134 -100 vvcurveto
          -116 -59 -108 -117 -80 vhcurveto
          13 vlineto
          126 -78 73 -114 -130 vvcurveto
          -1054 614 rmoveto
          -40 40 -31 78 -28 vhcurveto
          -104 17 -54 34 58 vvcurveto
          55 66 76 254 218 124 -58 -47 5 vhcurveto
          hintmask 1010101010011100
          22 -14 -139 46 -195 hhcurveto
          -209 -70 -60 -44 hvcurveto
          hintmask 1001010110101100
          -29 -570 rmoveto
          -66 59 -59 79 -14 vhcurveto
          -101 -77 67 72 46 34 93 159 16 hvcurveto
          406 -61 117 -56 -42 vvcurveto
          -11 18 -220 72 -288 33 rrcurveto
          -81 1 -76 -61 -59 vvcurveto
          endchar
        </CharString>
        <CharString name="emdash">
          -412 31 callsubr
          1238 40 hintmask 10100000
          740 vmoveto
          -165 1166 -46 callsubr
          -1192 38 vlineto
          endchar
        </CharString>
        <CharString name="endash">
          -452 31 callsubr
          1068 40 hintmask 10100000
          160 740 rmoveto
          -165 836 -46 callsubr
          -862 38 vlineto
          endchar
        </CharString>
        <CharString name="equal">
          -502 238 108 145 163 -38 -73 callgsubr
          145 hstemhm
          998 40 hintmask 11011000
          160 491 rmoveto
          -145 766 145 vlineto
          72 -231 rmoveto
          175 40 -197 -792 38 762 vlineto
          -848 593 rmoveto
          -145 766 145 vlineto
          82 -215 rmoveto
          -10 -16 rlineto
          175 40 vlineto
          hintmask 10101000
          -197 -792 vlineto
          hintmask 11011000
          38 vlineto
          endchar
        </CharString>
        <CharString name="eth">
          -137 -138 262 -154 154 494 227 -155 155 330 150 3 -20 -41 callsubr
          -217 287 722 217 7 40 25 40 hintmask 0101101011100000
          1124 420 rmoveto
          -192 2 -143 -104 -269 hhcurveto
          -243 -139 122 161 177 164 106 221 243 163 -112 -158 1 hvcurveto
          108 152 rmoveto
          174 -76 -195 99 -242 hhcurveto
          -393 -211 -199 -234 -279 240 -163 357 424 205 251 298 464 -368 342 -669 hvcurveto
          -150 vlineto
          484 341 -227 -440 hvcurveto
          -684 423 rmoveto
          0 831 224 0 vhcurveto
          127 vlineto
          -830 -225 rlineto
          hintmask 1010010111100000
          -44 -650 rmoveto
          128 95 83 220 134 141 -55 -60 33 vhcurveto
          46 -72 -132 33 -104 hhcurveto
          -177 -96 -59 -117 -94 64 -69 148 -48 hvcurveto
          -164 20 -90 78 114 vvcurveto
          946 683 rmoveto
          9 14 -148 -40 rlineto
          126 -144 78 -198 -202 vvcurveto
          -396 -290 -224 -411 -170 -209 54 89 -109 vhcurveto
          -118 84 190 -63 214 hhcurveto
          445 296 241 415 204 -66 185 -128 159 hvcurveto
          -30 vlineto
          129 36 rlineto
          184 vlineto
          -40 -4 rlineto
          -469 -277 rmoveto
          16 -10 11 -11 8 -11 -168 -46 rcurveline
          -46 2 -36 2 -89 -9 rrcurveto
          460 363 rmoveto
          -57 36 -111 30 -106 7 81 -17 81 -32 54 -34 rrcurveto
          endchar
        </CharString>
        <CharString name="exclam">
          -1037 -108 368 -260 440 855 -20 hstemhm
          170 291 72 40 hintmask 01111000
          461 1295 rmoveto
          -291 -190 hlineto
          -161 20 -308 20 -126 vhcurveto
          0 205 -101 callgsubr
          21 124 25 269 202 vvcurveto
          -191 -665 rmoveto
          -38 245 vlineto
          37 248 21 205 252 vvcurveto
          132 -40 -139 vlineto
          -219 -21 -219 -35 -239 vhcurveto
          10 17 rlineto
          hintmask 10111000
          -7 -180 rmoveto
          -325 hlineto
          -260 325 vlineto
          -75 callsubr
          endchar
        </CharString>
        <CharString name="exclamdown">
          -1028 16 callgsubr
          947 368 -330 -20 90 260 hstemhm
          170 290 72 40 hintmask 11100110
          170 hmoveto
          290 190 hlineto
          172 -17 237 -23 186 vhcurveto
          -205 hlineto
          -13 -77 -32 -296 -222 vvcurveto
          75 -260 rmoveto
          -38 327 268 vlineto
          226 -5 74 -30 274 vhcurveto
          -40 hlineto
          23 -195 12 -202 -177 vvcurveto
          -247 vlineto
          11 17 rlineto
          -63 1365 rmoveto
          -325 hlineto
          -260 325 vlineto
          hintmask 11011110
          -265 -70 rmoveto
          hintmask 11100110
          -38 377 312 -40 -291 vlineto
          hintmask 11011110
          10 17 rlineto
          endchar
        </CharString>
        <CharString name="f">
          -387 -91 callgsubr
          427 258 -258 472 -364 150 176 404 -296 50 66 180 hstemhm
          140 49 callgsubr
          40 302 40 83 40 133 40 hintmask 1010001101111100
          809 1235 rmoveto
          125 47 -60 -56 24 hvcurveto
          206 hlineto
          170 -33 -125 126 -244 hhcurveto
          -276 -173 -178 -257 hvcurveto
          -884 -68 callgsubr
          hintmask 0110001110111100
          -28 callsubr
          775 150 -390 hlineto
          -47 callgsubr
          890 vlineto
          161 113 77 121 vhcurveto
          -609 -1305 rmoveto
          hintmask 1010010010111100
          -38 827 202 -40 -181 -90 callgsubr
          -337 647 rmoveto
          490 202 -40 -181 hlineto
          10 17 rlineto
          -475 -405 40 378 hlineto
          -545 247 rmoveto
          hintmask 1000101110111100
          -150 898 150 vlineto
          -353 91 rmoveto
          176 66 32 66 21 53 -1 -25 49 vhcurveto
          26 -14 -39 35 -68 hhcurveto
          -94 -80 -52 -190 hvcurveto
          -22 vlineto
          0 40 -101 callgsubr
          598 127 rmoveto
          hintmask 1001001110111100
          0 0 17 10 vhcurveto
          -228 hlineto
          hintmask 1010010010111100
          -80 callgsubr
          258 68 hlineto
          80 -55 154 -109 53 vhcurveto
          68 -68 56 -111 -125 vvcurveto
          -1083 -485 rmoveto
          120 38 -120 -38 hlineto
          endchar
        </CharString>
        <CharString name="five">
          -8 -140 40 70 160 -160 485 -38 184 -76 76 -38 266 -90 callsubr
          -160 226 -226 346 -158 388 -280 -20 32 -29 callgsubr
          178 198 72 40 712 225 -180 214 38 40 -11 41 hintmask 110100001000111101000000
          1158 1015 rmoveto
          -710 -195 hlineto
          40 16 rlineto
          164 vlineto
          hintmask 110100100011011101000000
          -24 -23 rlineto
          694 hlineto
          hintmask 110100001000111101000000
          hintmask 110100100100011101000000
          379 -120 rmoveto
          337 -40 -323 vlineto
          hintmask 110100010011011101000000
          10 24 rlineto
          -247 hlineto
          hintmask 110100100100011101000000
          -38 vlineto
          -442 -997 rmoveto
          hintmask 110100100010111010100000
          446 303 173 346 94 -31 139 -137 57 hvcurveto
          102 -77 25 -87 -126 vvcurveto
          -281 -238 -198 -470 -191 -219 43 80 -127 vhcurveto
          -107 107 205 -56 225 hhcurveto
          -13 110 rmoveto
          420 234 178 242 237 -212 198 -356 4 hvcurveto
          -231 3 -200 -59 -119 -96 35 -29 rcurveline
          508 vlineto
          -17 -71 rlineto
          871 hlineto
          hintmask 110100100011011101000000
          -30 30 rlineto
          -150 225 vlineto
          hintmask 110010100100011101000000
          280 -1247 -720 222 vlineto
          93 98 157 51 214 hhcurveto
          hintmask 110100100100011011000000
          232 144 -112 -170 -163 -171 -94 -269 -197 -152 54 130 -82 hvcurveto
          -197 -75 rlineto
          -167 92 215 -102 321 hhcurveto
          -326 327 rmoveto
          30 -47 69 -30 92 -15 -51 17 -73 42 -29 47 rrcurveto
          hintmask 101010100100011101000000
          -41 144 rmoveto
          -238 hlineto
          hintmask 110100100100011101000000
          -38 250 vlineto
          hintmask 110001000100011101000000
          86 33 122 60 220 hhcurveto
          125 131 -42 -30 27 hvcurveto
          hintmask 110100100100011101000000
          73 -28 -163 37 -92 hhcurveto
          -228 -157 -77 -93 -32 hvcurveto
          endchar
        </CharString>
        <CharString name="foundryicon">
          408 -86 296 572 426 -158 158 hstemhm
          424 367 519 409 hintmask 11011000
          424 561 rmoveto
          -358 290 -289 358 357 290 289 358 359 -290 288 -357 -358 -290 -288 -359 vhcurveto
          211 -288 rmoveto
          22 13 68 5 16 vhcurveto
          11 8 64 0 7 -5 4 -20 0 -12 9 -23 13 -32 110 -59 69 45 9 23 -4 25 -5 15 -32 73 -188 48 -48 97 -19 31 -8 56 27 48 19 35 48 36 39 14 32 10 rcurveline
          -13 15 -6 16 17 vvcurveto
          hintmask 10111000
          92 190 110 194 8 vhcurveto
          133 5 5 -107 -3 -92 rrcurveto
          -28 vlineto
          -49 vlineto
          177 7 rlineto
          8 2 -8 -9 -21 -14 -53 -8 hvcurveto
          -165 -297 hlineto
          -81 26 -26 42 -3 vhcurveto
          40 55 9 8 24 hvcurveto
          11 11 -27 -8 -8 hvcurveto
          -21 -35 -71 -39 -84 hhcurveto
          -75 -69 24 119 hvcurveto
          10 342 -80 1 rlineto
          -14 1 26 13 13 hvcurveto
          2 45 21 36 21 vhcurveto
          8 158 35 88 -101 -5 -92 -3 -159 -65 8 -79 3 -53 72 -33 47 -18 5 -3 4 -1 3 -1 5 -2 rcurveline
          3 -25 -15 -81 -5 -15 -9 -3 -44 -5 -16 7 -5 7 -3 22 -8 25 -10 28 -89 50 -61 -42 -8 -15 -2 -27 5 -15 19 -67 169 -53 69 -77 33 -40 9 -44 -12 -47 rrcurveto
          -16 -38 -42 -50 -41 -18 -47 -31 -69 -4 -41 3 -68 3 -76 23 -11 40 rrcurveto
          endchar
        </CharString>
        <CharString name="four">
          -5 -108 268 -90 callsubr
          -160 330 -38 268 -90 callsubr
          685 -20 hstemhm
          941 225 -225 475 -178 40 210 40 109 40 hintmask 1000111011100000
          1278 1194 rmoveto
          -40 -574 40 hlineto
          -630 -690 rmoveto
          -38 880 212 -40 -191 -90 callgsubr
          -987 681 rmoveto
          60 hlineto
          300 241 rlineto
          47 vlineto
          -821 -499 rmoveto
          1515 160 -1412 hlineto
          76 -90 799 674 rlineto
          -87 -1038 hlineto
          -68 callsubr
          -413 hlineto
          hintmask 0101010101100000
          -160 828 160 -300 vlineto
          hintmask 1001011011100000
          -47 callgsubr
          1128 -285 vlineto
          -831 -685 rlineto
          hintmask 1000111011100000
          hintmask 1001011011100000
          1212 -268 rmoveto
          415 212 -40 -198 hlineto
          hintmask 0010111011100000
          18 24 rlineto
          -417 -110 40 94 hlineto
          hintmask 1001011011100000
          -415 -22 rmoveto
          hintmask 0010111011100000
          38 -745 vlineto
          hintmask 1001011011100000
          -38 vlineto
          endchar
        </CharString>
        <CharString name="g">
          41 -618 -14 callgsubr
          392 38 224 -154 154 543 46 37 225 29 callgsubr
          -217 287 722 103 -103 210 -210 430 -148 40 180 40 hintmask 0101010101001011
          144 -306 rmoveto
          -143 132 242 -61 208 hhcurveto
          355 253 138 430 hvcurveto
          780 vlineto
          -50 -43 rlineto
          hintmask 1000110101000101
          270 170 -430 -907 hlineto
          -335 -155 -78 -250 -128 -203 45 135 -132 vhcurveto
          868 675 rmoveto
          -265 2 -215 -91 -197 hhcurveto
          -249 -133 145 206 hvcurveto
          hintmask 1000110010110011
          204 182 141 213 220 176 -150 -190 1 vhcurveto
          108 142 rmoveto
          257 -48 -270 96 -185 hhcurveto
          -393 -221 -261 -247 -305 209 -192 373 258 247 149 195 20 hvcurveto
          -820 159 rmoveto
          hintmask 0011011000110011
          153 135 124 190 127 81 -45 -63 48 vhcurveto
          40 -65 -67 31 -124 hhcurveto
          -167 -116 -114 -122 -130 57 -93 144 -57 hvcurveto
          -139 14 -104 106 156 vvcurveto
          669 -521 rmoveto
          -59 -100 -131 -31 -141 hhcurveto
          -214 -165 63 118 -84 hvcurveto
          -89 109 183 -54 170 hhcurveto
          146 134 37 65 99 hvcurveto
          369 682 rmoveto
          -17 -17 rlineto
          237 222 -40 -201 hlineto
          10 17 rlineto
          -230 -662 hlineto
          -495 -315 -148 -365 -178 -211 38 97 -134 vhcurveto
          hintmask 1001011001010011
          -107 87 234 -66 202 hhcurveto
          394 326 160 521 hvcurveto
          endchar
        </CharString>
        <CharString name="germandbls">
          131 0 callgsubr
          0 150 0 446 38 70 151 316 -36 100 0 170 hstemhm
          145 435 -215 215 72 40 -40 174 364 216 72 40 0 71 72 42 hintmask 1011101010110110
          323 617 41 callgsubr
          1201 441 rmoveto
          202 -154 145 -337 -344 -206 -222 -285 vhcurveto
          -20 vlineto
          hintmask 1011101100110110
          -220 -153 270 hlineto
          hintmask 1011101010110110
          -50 109 rlineto
          -738 -68 callgsubr
          hintmask 0101010100110110
          -28 callsubr
          435 864 hlineto
          252 108 119 227 188 87 -68 -118 vhcurveto
          hintmask 1011101100110110
          -114 -75 -80 -183 vhcurveto
          -106 -151 99 hlineto
          300 140 -72 -219 -149 -100 -114 -314 hvcurveto
          -102 -150 93 hlineto
          483 164 177 235 213 -145 150 -209 29 hvcurveto
          0 -62 -38 0 vhcurveto
          153 36 80 144 112 vvcurveto
          hintmask 1011101101010110
          -714 -1166 rmoveto
          -487 38 457 hlineto
          -10 -17 rlineto
          952 vlineto
          220 111 86 165 100 61 -35 -26 16 vhcurveto
          hintmask 1011010101011010
          22 -61 -58 3 -63 hhcurveto
          -158 -73 -80 -192 hvcurveto
          250 -933 rmoveto
          472 247 142 352 214 -120 132 -139 54 hvcurveto
          44 50 32 113 80 vvcurveto
          120 -45 83 -95 86 vhcurveto
          111 -39 69 -135 -123 vvcurveto
          -90 -32 -104 -33 -41 vhcurveto
          15 vlineto
          142 -69 108 -150 -196 vvcurveto
          -354 -234 -178 -529 vhcurveto
          -31 38 hlineto
          -33 666 rmoveto
          175 130 -16 -30 63 hvcurveto
          -23 51 -142 43 -203 -10 rrcurveto
          -80 callgsubr
          endchar
        </CharString>
        <CharString name="grave">
          -723 51 callgsubr
          440 1193 -32 callsubr
          -77 callsubr
        </CharString>
        <CharString name="greater">
          -412 -92 -21 1190 -20 hstem
          1118 40 vstem
          170 199 rmoveto
          -205 vlineto
          876 419 rlineto
          245 vlineto
          -876 419 rlineto
          -215 vlineto
          755 -351 rlineto
          39 vlineto
          -715 -663 rmoveto
          948 443 rlineto
          233 vlineto
          -40 19 rlineto
          -241 vlineto
          10 20 -918 -429 rlineto
          475 569 rmoveto
          50 22 -525 239 rlineto
          -45 vlineto
          endchar
        </CharString>
        <CharString name="guillemotleft">
          -387 111 -21 887 -20 hstemhm
          618 40 -40 488 72 40 hintmask 11101000
          271 543 rmoveto
          -25 vlineto
          -93 callgsubr
          392 6 rmoveto
          -25 vlineto
          hintmask 11011000
          -93 callgsubr
          endchar
        </CharString>
        <CharString name="guillemotright">
          -397 8 -21 990 -20 hstemhm
          618 40 -40 478 72 40 hintmask 11011000
          200 312 rmoveto
          -218 vlineto
          -78 callsubr
          hintmask 11101000
          -45 callgsubr
          510 -261 rmoveto
          -218 vlineto
          hintmask 11011000
          -78 callsubr
          -45 callgsubr
          endchar
        </CharString>
        <CharString name="guilsinglleft">
          -917 111 -21 887 -20 hstem
          598 40 vstem
          251 543 rmoveto
          -25 vlineto
          -93 callgsubr
          endchar
        </CharString>
        <CharString name="guilsinglright">
          -917 8 -21 990 -20 hstem
          598 40 vstem
          180 312 rmoveto
          -218 vlineto
          -78 callsubr
          -45 callgsubr
          endchar
        </CharString>
        <CharString name="h">
          127 -91 callgsubr
          605 240 -170 170 240 160 hstemhm
          120 49 callgsubr
          42 58 72 -72 325 -325 495 -170 385 -215 215 72 40 108 72 hintmask 0110110100100110
          180 1127 rmoveto
          -74 callsubr
          545 -1127 rmoveto
          150 vlineto
          -3 -217 0 0 hvcurveto
          -47 callgsubr
          1288 -435 -160 270 vlineto
          hintmask 1010101110010110
          -50 49 rlineto
          -1188 -68 callgsubr
          hintmask 0110110100100110
          -48 callgsubr
          505 1344 38 callgsubr
          -445 -1022 rmoveto
          hintmask 1010110110010110
          -80 callgsubr
          657 -18 callgsubr
          202 0 vhcurveto
          -40 -181 hlineto
          6 callgsubr
          -89 callgsubr
          -80 callgsubr
          657 -18 callgsubr
          202 0 vhcurveto
          -40 -181 hlineto
          6 callgsubr
          24 callgsubr
          118 66 123 -61 callsubr
          -130 -102 -97 -29 hvcurveto
          14 77 rlineto
          hintmask 0101110110010110
          988 -595 -41 callgsubr
          50 -43 rlineto
          391 -102 callsubr
          hintmask 1010110101001110
          -51 callsubr
          hintmask 0110110110010110
          5 callgsubr
          endchar
        </CharString>
        <CharString name="hbar">
          127 -91 callgsubr
          520 240 -170 170 -18 233 -125 125 -125 395 hstemhm
          120 435 -375 375 -82 callgsubr
          hintmask 010010000001110001000000
          236 892 rmoveto
          72 38 -72 hlineto
          489 -930 -42 callsubr
          hintmask 101000110000110001000000
          -47 callgsubr
          1288 -435 -150 vlineto
          0 270 -101 callgsubr
          hintmask 101001000100110001000000
          -50 callsubr
          hintmask 011001010000110001000000
          -48 callgsubr
          hintmask 011001000001110001000000
          505 1344 rmoveto
          40 -159 -40 hlineto
          hintmask 101001001000100101000000
          -445 -1255 27 callsubr
          740 6 callsubr
          196 -93 callsubr
          -437 -469 27 callsubr
          -1070 280 rmoveto
          hintmask 011001000010100011000000
          -40 265 hlineto
          118 66 123 -61 callsubr
          -130 -102 -97 -29 hvcurveto
          14 77 rlineto
          988 -510 -41 callgsubr
          hintmask 100101010000110001000000
          -47 callgsubr
          306 -102 callsubr
          hintmask 101001010000101001000000
          18 -48 11 -89 -107 vvcurveto
          -232 -68 callgsubr
          hintmask 011001010000110001000000
          5 callgsubr
          hintmask 011001001000100011000000
          -870 1125 rmoveto
          -125 705 12 callgsubr
          hintmask 100010010000110001000000
          -294 -233 rmoveto
          78 hlineto
          23 20 31 12 28 6 rrcurveto
          -160 hlineto
          endchar
        </CharString>
        <CharString name="hyphen">
          -752 31 callsubr
          788 40 hintmask 10100000
          140 740 rmoveto
          -165 576 -46 callsubr
          -602 38 vlineto
          endchar
        </CharString>
        <CharString name="i">
          -66 callgsubr
          -170 349 -38 308 -200 -23 callsubr
          hintmask 0110010000010100
          -6 callsubr
          hintmask 1010010100001100
          -48 callsubr
          -455 vlineto
          hintmask 1001010100001100
          52 callgsubr
          hintmask 1010010001001100
          -81 callgsubr
          hintmask 0110010100001100
          15 callsubr
          hintmask 0110010000010100
          -34 callsubr
          hintmask 1010010010001100
          -38 737 202 -40 -181 -90 callgsubr
          -312 1484 rmoveto
          -245 hlineto
          hintmask 1000101010001100
          -24 callsubr
          hintmask 1010010100001100
          -38 297 252 -40 -231 vlineto
          hintmask 1000101000101100
          10 17 rlineto
          -12 -230 rmoveto
          40 -704 -40 hlineto
          endchar
        </CharString>
        <CharString name="iacute">
          122 0 245 194 endchar
        </CharString>
        <CharString name="icircumflex">
          -66 callgsubr
          -170 328 410 -20 -39 callgsubr
          hintmask 0110010001100000
          185 687 -57 callgsubr
          hintmask 1010011000100000
          -48 callsubr
          -455 vlineto
          hintmask 1001011000100000
          52 callgsubr
          hintmask 1010010100100000
          -81 callgsubr
          hintmask 0110011000100000
          15 callsubr
          hintmask 0110010001100000
          -34 callsubr
          hintmask 1000110010100000
          -70 callsubr
          -566 913 -107 callsubr
        </CharString>
        <CharString name="idieresis">
          -66 callgsubr
          -170 328 -38 39 callsubr
          hstemhm
          60 245 -180 292 -52 52 -52 215 -215 285 -285 445 -290 -1 callgsubr
          5 40 hintmask 1000101101000111
          305 1393 -4 callgsubr
          hintmask 1010010010000111
          -38 297 252 -40 -231 vlineto
          hintmask 1000101101000111
          10 17 rlineto
          hintmask 1010010101000111
          378 270 rmoveto
          -245 hlineto
          hintmask 1000101101000111
          -200 245 vlineto
          hintmask 1000101100100011
          -59 callsubr
          hintmask 1010010100100011
          -38 297 252 -40 -231 vlineto
          hintmask 1000101100100011
          10 17 rlineto
          hintmask 0110010100001011
          -662 -436 -57 callgsubr
          hintmask 1010010100100011
          -48 callsubr
          vlineto
          hintmask 1001010010000111
          -455 -170 290 hlineto
          hintmask 1010010101000111
          -81 callgsubr
          hintmask 0110010010000111
          15 callsubr
          hintmask 0110010100001011
          -34 callsubr
          hintmask 1010010100010011
          -70 callsubr
          endchar
        </CharString>
        <CharString name="igrave">
          -66 callgsubr
          568 -20 -39 callgsubr
          hintmask 0110100011000000
          185 687 -57 callgsubr
          hintmask 1010110001000000
          -48 callsubr
          -455 vlineto
          hintmask 1001110001000000
          52 callgsubr
          hintmask 1010101001000000
          -81 callgsubr
          hintmask 0110110001000000
          15 callsubr
          hintmask 0110100011000000
          -34 callsubr
          hintmask 1010100101000000
          -70 callsubr
          -251 983 -32 callsubr
          -77 callsubr
        </CharString>
        <CharString name="ij">
          177 -578 -73 callgsubr
          170 0 192 38 70 0 150 575 70 170 141 38 70 0 -23 callsubr
          188 37 callgsubr
          hintmask 101011110000010110010000
          -6 callsubr
          hintmask 101101110100001110010000
          -48 callsubr
          -455 52 callgsubr
          hintmask 101011110001001110010000
          -81 callgsubr
          hintmask 101011110100001110010000
          15 callsubr
          hintmask 101011110000010110010000
          hintmask 101101101010001110010000
          -34 callsubr
          -38 737 202 -40 -181 -90 callgsubr
          -312 1484 -81 callsubr
          hintmask 101101110000101110010000
          -104 callsubr
          -12 -230 rmoveto
          40 -704 -40 hlineto
          520 476 1 callgsubr
          hintmask 010101101100001110010000
          -99 callgsubr
          1228 vmoveto
          hintmask 101101101100001101010000
          -245 -200 245 hlineto
          hintmask 101101110100001100110000
          -104 callsubr
          -652 -1291 -63 callsubr
          -84 callsubr
          endchar
        </CharString>
        <CharString name="itilde">
          -182 0 245 196 endchar
        </CharString>
        <CharString name="j">
          -5 callsubr
          171 141 38 70 0 200 hstemhm
          163 37 callgsubr
          hintmask 1011101001000000
          223 686 1 callgsubr
          hintmask 0111011001000000
          -99 callgsubr
          1228 vmoveto
          hintmask 1011010101000000
          -245 -200 245 hlineto
          hintmask 1011100011000000
          -104 callsubr
          -652 -1291 -63 callsubr
          -84 callsubr
          endchar
        </CharString>
        <CharString name="jcircumflex">
          -5 callsubr
          171 120 38 70 340 -20 hstemhm
          163 445 70 40 hintmask 10111111
          42 callsubr
          385 241 4 callsubr
          hintmask 01111111
          -99 callgsubr
          -570 -333 -63 callsubr
          hintmask 10111111
          -84 callsubr
          -665 209 -107 callsubr
        </CharString>
        <CharString name="k">
          107 -91 callgsubr
          584 231 -170 170 280 150 hstemhm
          130 -4 callsubr
          385 72 40 hintmask 0110100011000000
          190 1137 rmoveto
          -74 callsubr
          545 -1137 -42 callsubr
          hintmask 1010110001000000
          -56 callgsubr
          hintmask 1010101001000000
          -50 callsubr
          hintmask 0110110001000000
          -48 callgsubr
          hintmask 0110100011000000
          -34 callsubr
          hintmask 1001100101000000
          -44 callgsubr
          170 -656 -170 283 76 hlineto
          -25 callsubr
          -261 hlineto
          hintmask 0110100101000000
          -150 621 150 -263 vlineto
          -58 callsubr
          179 rlineto
          282 hlineto
          -14 -30 rlineto
          205 40 -213 -317 vlineto
          36 11 -291 -168 -43 callgsubr
          375 -331 rmoveto
          hintmask 1010110001000000
          -38 673 -19 callgsubr
        </CharString>
        <CharString name="kcommaaccent">
          107 32 callgsubr
          134 70 0 150 546 99 0 170 280 150 hstemhm
          130 435 -215 215 242 40 172 72 hintmask 1001101101100000
          190 1137 rmoveto
          -74 callsubr
          545 -1137 -42 callsubr
          -56 callgsubr
          hintmask 1001101011100000
          -50 callsubr
          hintmask 1001101101100000
          -48 callgsubr
          hintmask 1010101101100000
          60 -70 rmoveto
          -44 callgsubr
          hlineto
          hintmask 1001011101100000
          170 -656 -170 283 76 vlineto
          -25 callsubr
          -261 -150 621 150 -263 hlineto
          -58 callsubr
          179 rlineto
          282 hlineto
          -14 -30 rlineto
          205 40 vlineto
          hintmask 1010101101100000
          -213 -317 vlineto
          36 11 -291 -168 -43 callgsubr
          375 -331 rmoveto
          -38 673 202 -40 -181 -90 callgsubr
          -859 -576 -65 callgsubr
          hintmask 0110101101100000
          -58 callgsubr
        </CharString>
        <CharString name="kgreenlandic">
          98 -91 callgsubr
          595 220 -67 callgsubr
          hstemhm
          130 -4 callsubr
          385 72 40 hintmask 0110000110000000
          308 707 41 callgsubr
          545 -707 -42 callsubr
          hintmask 1010100010000000
          -30 callgsubr
          vlineto
          hintmask 1001100010000000
          -150 270 vlineto
          hintmask 1010010010000000
          -50 49 rlineto
          -768 -68 callgsubr
          hintmask 0110100010000000
          -48 callgsubr
          hintmask 0110000110000000
          -34 callsubr
          hintmask 1001001010000000
          -38 657 202 -40 -181 -90 callgsubr
          -182 984 rmoveto
          40 -310 hlineto
          -40 -24 rlineto
          -75 -254 rmoveto
          867 533 -112 -44 rlineto
          257 150 -629 -150 313 hlineto
          -57 56 -25 callsubr
          -251 hlineto
          hintmask 0110001010000000
          -150 611 150 -263 vlineto
          -58 callsubr
          190 rlineto
          282 hlineto
          -14 -30 rlineto
          194 40 -202 -317 vlineto
          36 11 -291 -179 -43 callgsubr
          385 -331 rmoveto
          hintmask 1010100010000000
          -38 663 -19 callgsubr
        </CharString>
        <CharString name="l">
          -733 -91 callgsubr
          1095 150 hstemhm
          120 -4 callsubr
          435 72 40 hintmask 01100011
          180 1137 rmoveto
          -74 callsubr
          595 -1137 -41 callgsubr
          hintmask 10110001
          -56 callgsubr
          hintmask 10101001
          -50 callsubr
          hintmask 01110001
          -48 callgsubr
          hintmask 01100011
          -34 callsubr
          hintmask 10100101
          8 callsubr
          40 -1134 -40 hlineto
          endchar
        </CharString>
        <CharString name="ldot">
          -626 -91 callgsubr
          336 39 callsubr
          451 150 hstemhm
          120 -4 callsubr
          435 -110 401 -245 245 -219 40 251 40 hintmask 1001110000101000
          1066 794 -4 callgsubr
          hintmask 0110100010101000
          -38 297 252 -40 -231 -90 callgsubr
          -968 613 rmoveto
          -74 callsubr
          595 -1137 -41 callgsubr
          hintmask 1010110001001000
          -56 callgsubr
          hintmask 1010101001001000
          -50 callsubr
          hintmask 0110110001001000
          -48 callgsubr
          hintmask 0110100010101000
          -34 callsubr
          hintmask 1010100100011000
          8 callsubr
          hintmask 1010100101001000
          40 -1134 -40 hlineto
          endchar
        </CharString>
        <CharString name="less">
          -412 11 -21 1087 -20 hstem
          1068 40 vstem
          241 553 rmoveto
          -39 vlineto
          755 351 rlineto
          212 vlineto
          -876 -419 rlineto
          -245 vlineto
          876 -419 rlineto
          208 vlineto
          -481 316 rmoveto
          593 275 rlineto
          240 vlineto
          -40 -26 rlineto
          -209 vlineto
          16 30 -632 -294 626 -292 -10 20 rlineto
          -241 vlineto
          40 -31 rlineto
          283 vlineto
          -590 275 rlineto
          endchar
        </CharString>
        <CharString name="logicalnot">
          -422 188 -21 107 406 -253 253 -145 145 hstemhm
          846 155 72 40 hintmask 10011100
          1001 680 rmoveto
          -856 -145 755 hlineto
          -54 94 rlineto
          hintmask 11001100
          -355 155 vlineto
          hintmask 10101100
          -197 153 rmoveto
          38 -573 -38 vlineto
          842 -239 rmoveto
          10 17 rlineto
          -177 -38 207 457 -40 hlineto
          endchar
        </CharString>
        <CharString name="lslash">
          -733 -91 callgsubr
          1095 150 hstemhm
          120 435 -402 402 -88 callgsubr
          285 -285 420 -420 492 15 40 hintmask 1010000101000000
          760 739 rmoveto
          155 vlineto
          hintmask 1010100001000000
          -607 -201 rlineto
          -155 vlineto
          hintmask 1010000101000000
          512 -328 rmoveto
          hintmask 1010001001000000
          -40 409 hlineto
          220 73 rlineto
          hintmask 1010000011000000
          36 callgsubr
          -225 -75 18 30 rlineto
          hintmask 0110001001000000
          -40 296 rmoveto
          414 40 -401 vlineto
          -485 214 rmoveto
          118 38 -118 hlineto
          595 -1175 -41 callgsubr
          hintmask 1011000001000000
          -56 callgsubr
          hintmask 1010010001000000
          -50 callsubr
          hintmask 0111000001000000
          -48 callgsubr
          -34 callsubr
          hintmask 1011000001000000
          36 callsubr
          endchar
        </CharString>
        <CharString name="m">
          992 -65 callsubr
          hstemhm
          157 435 26 callsubr
          193 385 26 callsubr
          193 -56 callsubr
          435 72 40 hintmask 011000001110001100010000
          217 687 rmoveto
          -74 callsubr
          545 -687 -42 callsubr
          hintmask 100101000110001100010000
          -31 callgsubr
          hintmask 101000100110001100010000
          -81 callgsubr
          hintmask 011001000110001100010000
          -48 callgsubr
          hintmask 011000001110001100010000
          -34 callsubr
          hintmask 100101000110001100010000
          -38 657 202 -40 -181 -90 callgsubr
          580 935 rmoveto
          -16 33 -55 51 -41 16 63 -8 52 -32 26 -33 rrcurveto
          hintmask 011001000100011100010000
          169 -892 -42 callsubr
          hintmask 100011000110001100010000
          23 callgsubr
          -143 83 -198 hhcurveto
          -229 -171 -121 -138 -59 hvcurveto
          20 -213 rlineto
          167 57 177 135 150 hhcurveto
          122 91 -46 -122 47 hvcurveto
          hintmask 101001000101001100010000
          -51 callsubr
          hintmask 011001000110001100010000
          5 callgsubr
          hintmask 011001000100011100010000
          -34 callsubr
          hintmask 100101000110001001010000
          -38 607 202 -40 -181 -90 callgsubr
          720 6 callsubr
          281 -93 callsubr
          hintmask 011001000110001000110000
          108 -484 -41 callgsubr
          hintmask 100011000110001100010000
          23 callgsubr
          -143 83 -198 hhcurveto
          -212 -177 -109 -146 -96 hvcurveto
          46 -217 rlineto
          167 57 177 135 150 hhcurveto
          114 90 -40 -105 50 hvcurveto
          hintmask 101001000110001010010000
          25 -51 10 -97 -124 vvcurveto
          -312 -68 callgsubr
          hintmask 011001000110001100010000
          5 callgsubr
          hintmask 011001000110001000110000
          -34 callsubr
          hintmask 101000010100101100010000
          -38 657 202 -40 -181 -90 callgsubr
          -1910 50 callsubr
          118 66 113 -61 callsubr
          -120 -102 -97 -29 hvcurveto
          14 77 rlineto
          860 -385 rmoveto
          -40 350 hlineto
          118 66 113 -61 callsubr
          -120 -102 -97 -29 hvcurveto
          14 77 rlineto
          endchar
        </CharString>
        <CharString name="macron">
          -432 1086 -73 callgsubr
          172 hstemhm
          1098 40 hintmask 10100000
          140 1366 rmoveto
          -172 886 vlineto
          hintmask 01100000
          172 vlineto
          82 -242 rmoveto
          -10 -16 rlineto
          202 40 vlineto
          hintmask 10100000
          -224 -912 38 vlineto
          endchar
        </CharString>
        <CharString name="mu">
          -3 -580 258 -67 callgsubr
          214 248 -170 239 -209 140 567 258 -67 callgsubr
          hstemhm
          -10 -35 callgsubr
          -346 176 -176 248 170 40 163 -35 callgsubr
          -100 40 132 40 hintmask 101000110000110011000000
          1375 210 rmoveto
          40 704 -40 hlineto
          -505 51 rmoveto
          -150 270 vlineto
          hintmask 100011010000101011000000
          -50 43 rlineto
          -858 vlineto
          hintmask 100011010000100101000000
          -2 callgsubr
          hintmask 100100100001110011000000
          50 -49 rlineto
          864 vlineto
          -768 -69 callgsubr
          -288 -520 rmoveto
          -227 141 -197 287 221 181 121 138 59 vhcurveto
          -20 213 rlineto
          hintmask 101001000010110011000000
          -167 -57 -200 -135 -184 hhcurveto
          -151 -112 88 210 hvcurveto
          786 -508 rmoveto
          -38 387 202 -40 -181 -90 callgsubr
          -1019 -28 rmoveto
          -172 -40 191 vlineto
          -14 52 55 -7 65 hhcurveto
          159 118 45 72 103 hvcurveto
          -46 vlineto
          -76 -116 -117 -33 -146 hhcurveto
          -60 -54 7 13 -50 hvcurveto
          -339 825 41 callgsubr
          998 hmoveto
          38 -118 -38 vlineto
          hintmask 011001001000110011000000
          -720 151 rmoveto
          -1330 vlineto
          hintmask 011001000100110011000000
          -2 callgsubr
          hintmask 101001010000110011000000
          -47 callgsubr
          1330 -435 vlineto
          hintmask 101000110000110011000000
          -150 270 vlineto
          hintmask 101001001000110011000000
          -50 43 rlineto
          60 -1400 rmoveto
          -38 437 -19 callgsubr
        </CharString>
        <CharString name="multiply">
          -446 216 -21 804 -20 hstem
          269 987 rmoveto
          -112 -111 710 -651 103 112 rlineto
          -820 hmoveto
          101 -109 710 647 -103 112 rlineto
          -480 -738 rmoveto
          24 -33 198 180 -27 31 rlineto
          547 -86 rmoveto
          -304 278 rlineto
          -22 vlineto
          294 268 -126 134 -22 -26 107 -116 -5 17 -292 -265 298 -272 10 19 -121 -132 25 -29 rlineto
          -411 595 rmoveto
          30 27 -189 181 -28 -26 rlineto
          endchar
        </CharString>
        <CharString name="n">
          152 -65 callsubr
          hstemhm
          157 435 -82 callgsubr
          hintmask 0110000011100010
          217 687 rmoveto
          -74 callsubr
          545 -687 -42 callsubr
          hintmask 1001010001100010
          -31 callgsubr
          hintmask 1010001001100010
          -81 callgsubr
          hintmask 0110010001100010
          -48 callgsubr
          hintmask 0110000011100010
          -34 callsubr
          hintmask 1001000101001010
          -96 callsubr
          hintmask 0110010001000110
          -80 callsubr
          hintmask 1000110001100010
          50 -43 rlineto
          391 -102 callsubr
          hintmask 1010010001010010
          -51 callsubr
          hintmask 0110010001100010
          5 callgsubr
          endchar
        </CharString>
        <CharString name="nacute">
          152 -65 callsubr
          -170 298 410 -20 hstemhm
          157 435 -82 callgsubr
          hintmask 011000100011100010000000
          217 687 rmoveto
          -74 callsubr
          545 -687 -42 callsubr
          hintmask 100100110001100010000000
          -31 callgsubr
          hintmask 101000101001100010000000
          -81 callgsubr
          hintmask 011000110001100010000000
          -48 callgsubr
          hintmask 011000100011100010000000
          -34 callsubr
          hintmask 100100100101001010000000
          -96 callsubr
          hintmask 011000110001000110000000
          -80 callsubr
          hintmask 100010110001100010000000
          50 -43 rlineto
          391 -102 callsubr
          hintmask 101000110001010010000000
          -51 callsubr
          hintmask 011000110001100010000000
          5 callgsubr
          hintmask 010001110001000110000000
          139 1533 7 callgsubr
          -105 callgsubr
        </CharString>
        <CharString name="nine">
          -13 -137 267 -90 callsubr
          -160 405 -38 268 -90 callsubr
          407 -29 callgsubr
          130 220 72 40 738 270 -216 216 72 42 hintmask 0100101111010000
          1200 861 rmoveto
          -146 -175 -110 -264 -256 -155 108 158 136 146 113 271 268 165 -138 -121 vhcurveto
          -432 -731 rmoveto
          -206 -136 49 119 -96 hvcurveto
          -186 -89 rlineto
          -161 121 199 -78 301 hhcurveto
          436 269 266 388 391 -271 265 -431 -399 -239 -196 -210 -240 227 -189 398 261 196 105 130 80 hvcurveto
          hintmask 0101010110110000
          -38 -43 rlineto
          -312 -173 -195 -313 vhcurveto
          -304 148 rmoveto
          28 -42 88 -39 81 -8 -75 24 -48 32 -38 51 rrcurveto
          1042 327 rmoveto
          -422 -295 -300 -479 -225 -153 38 91 -152 vhcurveto
          hintmask 1001010111010000
          -106 92 179 -61 259 hhcurveto
          512 304 314 445 239 -107 239 -211 94 hvcurveto
          156 -102 120 -206 -263 vvcurveto
          -352 -136 rmoveto
          hintmask 0010110111010000
          -65 -100 -133 -47 -202 hhcurveto
          -142 -158 33 52 -112 hvcurveto
          hintmask 1001010111010000
          -78 86 163 -45 163 hhcurveto
          192 127 39 57 99 hvcurveto
          -711 429 rmoveto
          78 90 72 215 111 100 -21 -37 70 vhcurveto
          38 -125 58 -156 -235 -110 -85 -95 -84 59 -72 156 -26 vhcurveto
          -128 47 -47 67 60 vvcurveto
          endchar
        </CharString>
        <CharString name="ntilde">
          152 -65 callsubr
          -170 291 -38 46 callsubr
          157 435 -82 callgsubr
          hintmask 011000100100011100010000
          217 687 rmoveto
          -74 callsubr
          545 -687 -42 callsubr
          hintmask 100100100110001100010000
          -31 callgsubr
          hintmask 101000100101001100010000
          -81 callgsubr
          hintmask 011000100110001100010000
          -48 callgsubr
          hintmask 011000100100011100010000
          -34 callsubr
          hintmask 100100100100101001010000
          -96 callsubr
          hintmask 011000100110001000110000
          -80 callsubr
          hintmask 100010100110001100010000
          50 -43 rlineto
          391 -102 callsubr
          hintmask 101000100110001010010000
          -51 callsubr
          hintmask 011000100110001100010000
          5 callgsubr
          hintmask 011000010110001000110000
          -366 1463 -101 callsubr
          hintmask 101000001010001100010000
          -62 callsubr
          hintmask 100001010110001100010000
          -78 callgsubr
          hintmask 101000100110001100010000
          -106 callsubr
          hintmask 100001010110001100010000
          -66 callsubr
        </CharString>
        <CharString name="numbersign">
          61 -108 479 -371 371 -38 233 -125 125 117 233 -195 195 -125 125 60 -20 318 -20 71 -20 hstemhm
          hintmask 0101100111000000
          373 hmoveto
          22 callgsubr
          666 371 rmoveto
          -211 45 callgsubr
          hintmask 1001100111000000
          -17 -38 rlineto
          242 hlineto
          192 450 rlineto
          hintmask 0010100111000000
          -13 -9 rlineto
          177 hlineto
          hintmask 1001100111000000
          hintmask 0010100111000000
          351 hmoveto
          295 48 callgsubr
          hintmask 1001100111000000
          20 16 rlineto
          -275 45 callgsubr
          -17 -38 rlineto
          242 hlineto
          194 456 rlineto
          hintmask 0010100111000000
          -156 926 55 callgsubr
          hintmask 0101001111000000
          10 -976 rmoveto
          22 callgsubr
          882 1274 55 callgsubr
          -1168 -60 28 callgsubr
          hintmask 1001100111000000
          -1273 -233 rmoveto
          hintmask 1001010111000000
          16 38 rlineto
          109 hlineto
          hintmask 1001100111000000
          -16 -38 rlineto
          357 hmoveto
          28 8 -28 -65 rlineto
          -43 hlineto
          hintmask 1001010111000000
          41 95 rlineto
          211 hlineto
          hintmask 1001100111000000
          -16 -38 rlineto
          363 hmoveto
          276 48 callgsubr
          hintmask 1001010111000000
          20 16 rlineto
          -268 hlineto
          -41 -95 rlineto
          43 hlineto
          37 86 rlineto
          hintmask 1001100111000000
          -1198 -146 28 callgsubr
          -1155 -195 rmoveto
          hintmask 0010100111000000
          -16 -38 rlineto
          -102 hlineto
          hintmask 1001100111000000
          16 38 rlineto
          endchar
        </CharString>
        <CharString name="o">
          -40 callsubr
          -9 callsubr
          hintmask 0011011110000000
          -97 callsubr
          hintmask 1000111110000000
          -95 callsubr
          hintmask 0101011110000000
          -75 callgsubr
          endchar
        </CharString>
        <CharString name="oacute">
          -40 callsubr
          -156 284 -128 90 38 70 340 -20 -9 callsubr
          hintmask 0011001111111000
          -97 callsubr
          hintmask 1000100111111000
          -95 callsubr
          hintmask 0100010011111000
          -75 callgsubr
          345 1407 7 callgsubr
          hintmask 1001001111111000
          -105 callgsubr
        </CharString>
        <CharString name="ocircumflex">
          -81 176 0 111 195 endchar
        </CharString>
        <CharString name="odieresis">
          -81 203 0 111 200 endchar
        </CharString>
        <CharString name="oe">
          924 -138 108 -88 -21 109 232 -76 230 70 125 0 218 -38 -73 callgsubr
          156 -41 callsubr
          70 40 725 215 -90 90 797 218 72 40 hintmask 1001010111101100
          402 467 rmoveto
          172 149 130 201 130 125 -59 -95 47 vhcurveto
          hintmask 0110101011101100
          78 -86 -100 38 -118 hhcurveto
          -172 -136 -119 -145 -120 59 -89 175 -56 hvcurveto
          -160 11 -114 109 145 vvcurveto
          1449 -606 rmoveto
          -260 -216 76 104 -124 hvcurveto
          31 6 rlineto
          hintmask 1001010111101100
          -119 -140 -187 -66 -198 hhcurveto
          -213 -182 68 116 -90 hvcurveto
          -93 128 156 -53 196 hhcurveto
          191 180 69 116 141 hvcurveto
          -120 141 211 -66 235 hhcurveto
          159 55 callsubr
          hintmask 0101010111101100
          -106 -156 -205 -53 -180 hhcurveto
          hintmask 1001010111101100
          -1119 109 rmoveto
          407 243 271 230 274 -240 250 -387 -377 -263 -235 -293 -258 247 -239 370 hvcurveto
          15 156 rmoveto
          -246 -169 140 205 202 166 166 254 244 171 -169 -199 -202 -173 -143 -247 hvcurveto
          736 468 -69 callsubr
          51 -74 -88 23 -100 hhcurveto
          -114 -94 -52 -86 -45 hvcurveto
          330 -469 rmoveto
          -293 -182 138 204 211 149 162 251 226 169 -149 -260 0 199 120 0 hvcurveto
          hintmask 1001100111011100
          -1086 -125 1105 hlineto
          341 -223 228 -388 -391 -218 -276 -255 -289 250 -205 424 205 200 72 107 126 vhcurveto
          -25 callgsubr
          25 17 15 -46 66 -58 123 -35 rlinecurve
          -95 callgsubr
          endchar
        </CharString>
        <CharString name="ograve">
          -81 262 0 111 193 endchar
        </CharString>
        <CharString name="one">
          -574 -108 268 -90 callsubr
          1085 -20 hstemhm
          189 495 -216 216 -216 288 -288 486 72 40 hintmask 01100101
          426 861 rmoveto
          38 vlineto
          -177 -47 rlineto
          -38 vlineto
          547 -594 rmoveto
          -40 964 hlineto
          40 11 rlineto
          hintmask 01100011
          158 -1195 rmoveto
          160 -320 vlineto
          hintmask 10110001
          -47 callgsubr
          1128 vlineto
          -495 -131 rlineto
          -207 vlineto
          329 86 rlineto
          hintmask 10101001
          -50 119 rlineto
          -1006 -68 callgsubr
          -378 hlineto
          hintmask 01100011
          -160 vlineto
          -34 callsubr
          hintmask 10110001
          -38 856 212 -40 -191 -90 callgsubr
          endchar
        </CharString>
        <CharString name="onehalf">
          1069 0 callgsubr
          -70 225 229 70 37 78 -8 265 -257 40 0 217 -145 145 0 419 35 2 callgsubr
          1057 429 -366 366 212 112 -85 112 -67 40 -13 40 hintmask 101100001110001101000000
          922 hmoveto
          -27 callsubr
          hintmask 011100100100101101000000
          25 callsubr
          -1685 -288 -55 callsubr
          hintmask 101100100100011101000000
          24 callsubr
          hintmask 101100100110001101000000
          -32 callgsubr
          hintmask 101100100101001101000000
          10 callgsubr
          hintmask 101001010110001101000000
          -233 -155 hlineto
          hintmask 011100100100011011000000
          36 -70 rmoveto
          21 callgsubr
          5 11 rlineto
          1155 91 rmoveto
          16 16 rlineto
          -255 -38 279 42 hlineto
          -18 callsubr
          hintmask 101100100110001100100000
          -38 956 303 vlineto
          hintmask 011100100110001100001000
          -40 -285 hlineto
          11 20 rlineto
          -775 225 rmoveto
          509 hlineto
          -18 -18 rlineto
          114 vlineto
          hintmask 101100010110001100100000
          201 -251 -877 95 hlineto
          142 125 109 288 99 vhcurveto
          217 75 8 22 45 vvcurveto
          51 -65 43 -126 vhcurveto
          hintmask 011010000110001101000000
          -179 -59 -45 -75 hvcurveto
          -209 hlineto
          157 142 108 309 250 149 -103 -134 -94 -51 -78 -297 -96 vhcurveto
          -232 -75 -47 -56 -4 -68 rrcurveto
          233 85 -7 callsubr
          hintmask 101100100110001100010000
          -11 callsubr
        </CharString>
        <CharString name="onequarter">
          1072 0 callgsubr
          -70 454 -229 84 -38 101 44 263 -155 155 636 -20 55 -20 hstemhm
          140 393 -196 196 259 40 1482 72 187 40 -40 90 hintmask 0100011110110100
          2424 491 rmoveto
          -38 344 38 hlineto
          -477 -905 rmoveto
          hintmask 1010101110111000
          -38 666 207 -40 -179 vlineto
          hintmask 0100011110110100
          14 callgsubr
          -152 rmoveto
          489 448 rlineto
          250 -740 hlineto
          hintmask 1010101110110100
          -30 24 rlineto
          217 -155 -590 155 233 hlineto
          -36 -31 rlineto
          688 118 vlineto
          -470 -430 -51 49 rlineto
          846 hlineto
          hintmask 1001101110110100
          -129 -976 vlineto
          1088 -103 rmoveto
          141 -40 -114 vlineto
          hintmask 1010101110110100
          11 13 rlineto
          -248 -40 hlineto
          hintmask 1001101110110100
          -314 2 rmoveto
          hintmask 1010101110110100
          38 -457 vlineto
          hintmask 1001101110110100
          -38 vlineto
          -692 -201 rmoveto
          -27 callsubr
          hintmask 0100011110110100
          25 callsubr
          -1686 -288 -55 callsubr
          24 callsubr
          -32 callgsubr
          hintmask 1010101101110100
          10 callgsubr
          hintmask 0100011110110100
          -233 -155 hlineto
          36 -70 rmoveto
          hintmask 1010101110110100
          21 callgsubr
          hintmask 0100011110110100
          5 11 rlineto
          endchar
        </CharString>
        <CharString name="onesuperior">
          -788 346 263 -155 155 671 2 callgsubr
          hintmask 01100101
          176 906 -55 callsubr
          hintmask 01100011
          24 callsubr
          hintmask 10110001
          -32 callgsubr
          hintmask 10101001
          10 callgsubr
          hintmask 01110001
          -233 -155 hlineto
          hintmask 01100011
          36 -70 rmoveto
          hintmask 10110001
          21 callgsubr
          5 11 rlineto
          endchar
        </CharString>
        <CharString name="ordfeminine">
          -32 316 108 -45 45 25 135 0 413 15 -73 callgsubr
          130 -130 160 hstemhm
          155 210 -210 282 594 92 -92 210 -210 395 -113 40 145 40 hintmask 0110100100010100
          1091 379 rmoveto
          -38 447 199 -40 -175 vlineto
          8 14 rlineto
          -475 70 rmoveto
          395 145 -226 hlineto
          hintmask 1001100100101100
          41 -34 rlineto
          596 vlineto
          -41 -51 rlineto
          hintmask 1001010100010100
          226 145 -395 hlineto
          -391 vmoveto
          -214 4 -196 -61 -157 hhcurveto
          -205 -112 120 142 171 146 103 173 185 162 -103 -158 hvcurveto
          hintmask 1001001011001100
          92 143 rmoveto
          179 -33 -213 99 -191 hhcurveto
          -327 -204 -198 -224 -253 185 -181 327 203 215 108 187 38 hvcurveto
          -686 127 rmoveto
          112 93 92 154 110 93 -49 -46 21 vhcurveto
          hintmask 1001100011001100
          31 -55 -67 26 -91 hhcurveto
          -158 -60 -84 -86 -69 37 -74 90 -36 hvcurveto
          -116 21 -51 71 91 vvcurveto
          552 -452 rmoveto
          -47 -79 -120 -31 -120 hhcurveto
          -178 -153 59 100 -71 hvcurveto
          -76 91 167 -45 143 hhcurveto
          124 126 35 48 70 hvcurveto
          547 560 rmoveto
          197 -40 -173 vlineto
          8 14 rlineto
          -191 -381 40 364 hlineto
          -15 -21 rlineto
          endchar
        </CharString>
        <CharString name="ordmasculine">
          -209 316 108 160 466 49 callsubr
          155 210 70 40 564 210 72 40 hintmask 11011111
          707 424 rmoveto
          334 208 196 234 256 -221 170 -336 -329 -208 -199 -227 -222 186 -208 366 hvcurveto
          -2 160 rmoveto
          -205 -135 109 161 153 146 113 181 188 159 -98 -168 -151 -113 -119 -221 hvcurveto
          -270 270 rmoveto
          116 107 80 150 114 97 -36 -72 36 vhcurveto
          hintmask 10101111
          41 -54 -81 29 -115 hhcurveto
          -130 -84 -76 -88 -64 37 -73 110 -53 hvcurveto
          -145 36 -42 74 86 vvcurveto
          886 hmoveto
          137 -102 165 -133 85 vhcurveto
          171 -64 104 -162 -161 vvcurveto
          -301 -276 -237 -378 -194 -171 71 101 -77 vhcurveto
          -79 107 160 -55 175 hhcurveto
          322 292 194 306 hvcurveto
          endchar
        </CharString>
        <CharString name="oslash">
          -83 -324 108 78 -73 callgsubr
          156 605 -73 callgsubr
          156 -156 328 hstemhm
          114 222 70 40 716 219 72 40 hintmask 1101001111000000
          788 729 rmoveto
          1 -4 -13 1 -17 hhcurveto
          -177 -131 -119 -145 -71 23 -67 50 -44 hvcurveto
          -13 -23 rlineto
          -64 48 -36 74 83 vvcurveto
          169 140 133 210 19 17 -2 -2 17 vhcurveto
          -73 -795 rmoveto
          391 254 210 291 hvcurveto
          hintmask 1010101111000000
          301 -227 223 -395 -377 -268 -235 -293 -258 252 -239 370 vhcurveto
          15 156 rmoveto
          -246 -169 140 205 207 168 161 252 244 162 -169 -199 -202 -164 -143 -247 hvcurveto
          -350 -342 rmoveto
          hintmask 1100011111000000
          824 1383 rlineto
          -137 hlineto
          -824 -1383 rlineto
          1014 1332 rmoveto
          43 hlineto
          -102 -181 3 12 rlineto
          135 -93 136 -164 -219 vvcurveto
          -393 -346 -216 -386 -66 -80 7 12 -43 vhcurveto
          25 9 -120 -214 rlineto
          -193 hlineto
          17 38 rlineto
          162 hlineto
          -20 -17 124 221 rlineto
          -10 35 79 -8 75 hhcurveto
          368 329 205 366 210 -140 189 -134 83 hvcurveto
          -443 -767 rmoveto
          14 19 0 1 14 hvcurveto
          268 440 -8 11 -14 16 -5 4 rlinecurve
          endchar
        </CharString>
        <CharString name="otilde">
          -40 callsubr
          -156 277 -121 83 38 70 0 47 -47 160 -113 70 0 160 -9 callsubr
          hintmask 0011001100101111
          -97 callsubr
          hintmask 1000100100101111
          -95 callsubr
          hintmask 0100010010011111
          -75 callgsubr
          -141 1337 rmoveto
          -141 -150 -88 -182 -43 hvcurveto
          0 172 -101 callgsubr
          67 25 59 43 65 hhcurveto
          47 26 -10 -46 82 hvcurveto
          hintmask 1001001001001111
          -51 81 38 -10 45 hhcurveto
          119 132 88 182 39 hvcurveto
          -172 hlineto
          -62 callsubr
          hintmask 1001001100011111
          -78 callgsubr
          hintmask 1001001100101111
          -106 callsubr
          -66 callsubr
        </CharString>
        <CharString name="p">
          61 -39 callsubr
          627 194 -170 170 -125 155 8 callgsubr
          -17 callgsubr
          67 47 156 72 0 40 390 217 72 43 hintmask 001100011000101110000000
          175 687 rmoveto
          -74 callsubr
          442 -685 rmoveto
          -53 96 133 -29 128 hhcurveto
          351 286 17 callsubr
          101 -209 -164 vvcurveto
          -377 -260 -246 -423 -116 -136 28 44 -85 vhcurveto
          23 -6 rlineto
          -220 -40 vlineto
          -67 757 rmoveto
          215 176 140 226 207 163 -139 -204 -214 -135 -139 -210 -236 -191 129 212 vhcurveto
          hintmask 100010010001101110000000
          -108 -141 rmoveto
          -222 46 220 -132 264 hhcurveto
          335 232 191 324 250 -205 240 -369 -254 -217 -144 -209 -52 hvcurveto
          180 -156 rmoveto
          hintmask 010101001000110110000000
          153 131 132 196 105 86 -42 -58 42 vhcurveto
          51 -80 -76 10 -77 hhcurveto
          -173 -112 -117 -126 -120 58 28 callsubr
          198 -958 rmoveto
          150 -290 vlineto
          20 -36 rlineto
          1323 -435 vlineto
          hintmask 100100101000101110000000
          -170 270 vlineto
          hintmask 100101000010101110000000
          -50 50 rlineto
          -1210 vlineto
          50 43 rlineto
          hintmask 010101000100110110000000
          -220 -150 hlineto
          -34 callsubr
          hintmask 100101001000101110000000
          36 callsubr
          endchar
        </CharString>
</ttFont>
